<svg enable-background="new 0 0 32 32" height="512" viewBox="0 0 32 32" width="512" xmlns="http://www.w3.org/2000/svg"><g id="BG" fill="rgb(0,187,249,10%)"><path d="m26 32h-20c-3.314 0-6-2.686-6-6v-20c0-3.314 2.686-6 6-6h20c3.314 0 6 2.686 6 6v20c0 3.314-2.686 6-6 6z"/><path d="m26 32h-20c-3.314 0-6-2.686-6-6v-20c0-3.314 2.686-6 6-6h20c3.314 0 6 2.686 6 6v20c0 3.314-2.686 6-6 6z"/></g><g id="Layer_3"><g><g><path d="m8 14.4v8.867c0 .405.328.733.733.733h3.867c.405 0 .733-.328.733-.733v-8.867c0-.405-.328-.733-.733-.733h-3.867c-.405 0-.733.328-.733.733z" fill="rgb(0,187,249,100%)"/></g><g><path d="m14.333 12.667h3.267c.405 0 .733-.328.733-.733v-3.2c0-.406-.328-.734-.733-.734h-8.867c-.405 0-.733.328-.733.733v3.2c0 .405.328.733.733.733h4.6 1z" fill="rgb(0,187,249,100%)"/></g><g><path d="m14.333 14.4v8.867c0 .405.328.733.733.733h2.534c.405 0 .733-.328.733-.733v-8.867c0-.405-.328-.733-.733-.733h-2.533c-.405 0-.734.328-.734.733z" fill="rgb(0,187,249,100%)"/></g><g><path d="m23.267 8h-3.2c-.405 0-.733.328-.733.733v3.933 1 9.6c0 .405.328.733.733.733h3.2c.405.001.733-.327.733-.732v-14.534c0-.405-.328-.733-.733-.733z" fill="rgb(0,187,249,100%)"/></g></g></g></svg>