<svg enable-background="new 0 0 32 32" height="512" viewBox="0 0 32 32" width="512" xmlns="http://www.w3.org/2000/svg"><path d="m26 32h-20c-3.314 0-6-2.686-6-6v-20c0-3.314 2.686-6 6-6h20c3.314 0 6 2.686 6 6v20c0 3.314-2.686 6-6 6z" fill="rgb(0,187,249,20%)"/><path d="m21.792 21.109h-12c-.368 0-.667.299-.667.667s.299.667.667.667h12c.368 0 .667-.299.667-.667s-.299-.667-.667-.667z" fill="rgb(0,187,249,100%)"/><g fill="rgb(0,187,249,100%)"><path d="m13.912 20.441c.502 0 1.004-.191 1.386-.573l5.032-5.032c.26-.26.26-.682 0-.943l-5.49-5.489c-.26-.26-.682-.26-.943 0l-5.032 5.032c-.764.764-.764 2.008 0 2.772l3.66 3.66c.383.382.885.573 1.387.573zm.457-10.623 4.546 4.546-.077.077h-9.071c.016-.02.023-.045.042-.063z"/><path d="m19.125 18.719c0 .95.748 1.722 1.667 1.722s1.667-.773 1.667-1.722c0-.765-.956-2.275-1.249-2.719-.185-.281-.65-.281-.835 0-.294.444-1.25 1.954-1.25 2.719z"/></g></svg>