<svg id="bold" enable-background="new 0 0 32 32" height="512" viewBox="0 0 32 32" width="512" xmlns="http://www.w3.org/2000/svg"><path d="m26 32h-20c-3.314 0-6-2.686-6-6v-20c0-3.314 2.686-6 6-6h20c3.314 0 6 2.686 6 6v20c0 3.314-2.686 6-6 6z" fill="rgb(0,187,249,20%)"/><path d="m20.333 19.833h-1.333v-.5c0-.368-.299-.667-.667-.667h-5.667c-1.103 0-2-.897-2-2v-.5h1.334v.5c0 .368.299.667.667.667h5.667c1.103 0 2 .897 2 2v.5z" fill="rgb(0,187,249,100%)"/><g fill="rgb(0,187,249,100%)"><path d="m22.833 19.333h-6.333c-.643 0-1.167.523-1.167 1.167v2.333c0 .643.523 1.167 1.167 1.167h6.333c.644 0 1.167-.523 1.167-1.167v-2.333c0-.643-.523-1.167-1.167-1.167zm-1.5 3.334h-3.333c-.368 0-.667-.298-.667-.667 0-.368.298-.667.667-.667h3.333c.369 0 .667.299.667.667 0 .369-.298.667-.667.667z"/><path d="m13.5 16.667h-4.333c-.644 0-1.167-.524-1.167-1.167v-6c0-.827.673-1.5 1.5-1.5h4c.276 0 .5.224.5.5v1.5h.167c.276 0 .5.224.5.5v5c0 .643-.524 1.167-1.167 1.167zm-4-7.667c-.276 0-.5.225-.5.5s.224.5.5.5h3.5v-1z"/></g></svg>