<svg id="bold" height="512" viewBox="0 0 32 32" width="512" xmlns="http://www.w3.org/2000/svg"><path d="m26 32h-20c-3.314 0-6-2.686-6-6v-20c0-3.314 2.686-6 6-6h20c3.314 0 6 2.686 6 6v20c0 3.314-2.686 6-6 6z" fill="rgb(0,187,249,20%)"/><path d="m22.74 23.333h-12.907c-.276 0-.5-.224-.5-.5s.224-.5.5-.5h12.907c.143 0 .26-.117.26-.26 0-.115-.077-.218-.189-.25l-3.46-.989c-.6-.171-1.018-.726-1.018-1.35 0-.605.385-1.14.96-1.332l3.382-1.127c.264-.089.545.054.633.316.087.262-.055.545-.316.632l-3.382 1.127c-.165.055-.276.209-.276.383 0 .179.12.339.293.388l3.46.989c.537.156.913.654.913 1.213 0 .695-.565 1.26-1.26 1.26z" fill="rgb(0,187,249,100%)"/><g fill="rgb(0,187,249,100%)"><path d="m8.666 21.298c-.098 0-.197-.021-.29-.067-.331-.161-.469-.56-.309-.891 1.479-3.051 3.782-5.111 7.038-6.3.345-.124.729.051.855.398.126.346-.052.729-.398.855-2.915 1.064-4.974 2.905-6.296 5.629-.115.238-.353.376-.6.376z"/><path d="m16.602 17.731c-1.371 0-2.507-.372-3.584-1.603-.243-.277-.215-.698.062-.941s.698-.215.941.063c1.001 1.144 1.952 1.262 3.574 1.087.382-.04.695.226.734.591.04.366-.225.695-.591.734-.397.044-.774.069-1.136.069z"/><path d="m10 19.333c-.179 0-.352-.072-.477-.201-.133-.136-.201-.322-.188-.511.28-4.058 2.277-7.045 5.777-8.637.208-.094.452-.076.642.049l1.79 1.176v-1.521c0-.317.223-.59.533-.653 1.194-.244 2.514-.368 3.923-.368.185 0 .361.077.488.212.126.135.19.317.177.501-.552 7.844-5.244 9.624-12.635 9.953-.011 0-.02 0-.03 0zm5.335-7.98c-2.65 1.32-4.192 3.539-4.596 6.607 6.267-.374 9.852-1.891 10.53-7.949-.842.028-1.643.105-2.393.23v2.202c0 .245-.134.47-.35.587-.215.117-.477.106-.682-.029z"/></g></svg>