<svg enable-background="new 0 0 32 32" height="512" viewBox="0 0 32 32" width="512" xmlns="http://www.w3.org/2000/svg"><path d="m26 32h-20c-3.314 0-6-2.686-6-6v-20c0-3.314 2.686-6 6-6h20c3.314 0 6 2.686 6 6v20c0 3.314-2.686 6-6 6z" fill="rgb(0,187,249,20%)"/><path d="m26 32h-20c-3.314 0-6-2.686-6-6v-20c0-3.314 2.686-6 6-6h20c3.314 0 6 2.686 6 6v20c0 3.314-2.686 6-6 6z" fill="rgb(0,187,249,0%)"/><path d="m22 24h-12c-1.103 0-2-.897-2-2v-12c0-1.103.897-2 2-2h12c1.103 0 2 .897 2 2v12c0 1.103-.897 2-2 2zm-12-14.667c-.368 0-.667.299-.667.667v12c0 .368.299.667.667.667h12c.368 0 .667-.299.667-.667v-12c0-.368-.299-.667-.667-.667z" fill="rgb(0,187,249,100%)"/><g fill="rgb(0,187,249,100%)"><path d="m19.833 11.167h-1.667c-.552 0-1 .448-1 1v7.667c0 .552.448 1 1 1h1.667c.552 0 1-.448 1-1v-7.667c0-.553-.447-1-1-1z"/><path d="m20.167 21.333h-2.333c-.643 0-1.167-.523-1.167-1.167v-8.333c0-.643.523-1.167 1.167-1.167h2.333c.643 0 1.167.523 1.167 1.167v8.333c-.001.644-.524 1.167-1.167 1.167zm-2.334-9.666c-.092 0-.167.075-.167.167v8.333c0 .092.075.167.167.167h2.333c.092 0 .167-.075.167-.167v-8.333c0-.092-.075-.167-.167-.167z"/></g></svg>