<svg width="480" height="367" viewBox="0 0 480 367" fill="none" xmlns="http://www.w3.org/2000/svg">
<path d="M44.2965 366.427L44.2741 366.572C44.2475 366.431 44.222 366.286 44.1977 366.143C44.1533 365.912 44.1147 365.681 44.0784 365.448C42.6371 356.365 43.4302 347.067 46.3892 338.36C46.9579 336.66 47.6057 334.991 48.3325 333.354C51.1121 327.014 55.0526 321.25 59.9504 316.36C61.5407 314.731 63.3551 313.337 65.3388 312.221C65.6301 312.067 65.9229 311.921 66.2223 311.786C68.0569 310.894 70.1224 310.595 72.1342 310.928C72.865 311.065 73.5733 311.303 74.239 311.635C74.4724 311.749 74.6971 311.874 74.9176 312.007C76.2623 312.89 77.4105 314.041 78.2903 315.388C79.17 316.736 79.7624 318.251 80.0303 319.838C80.4124 322.206 80.325 324.625 79.7731 326.959C79.7257 327.182 79.6748 327.405 79.6203 327.626C79.229 329.181 78.7374 330.71 78.1485 332.202C72.2539 347.385 59.5863 360.855 44.2965 366.427Z" fill="#F2F2F2"/>
<path d="M74.1998 311.684C69.6003 318.301 65.2554 325.085 61.1651 332.037C57.0798 338.983 53.2616 346.078 49.7106 353.321C47.7241 357.374 45.8245 361.468 44.0117 365.602C43.811 366.06 44.4881 366.458 44.6914 365.994C47.9288 358.614 51.4421 351.363 55.2312 344.242C59.018 337.128 63.0707 330.165 67.3894 323.352C69.8057 319.541 72.3024 315.782 74.8794 312.076C75.1676 311.662 74.4869 311.271 74.1998 311.684Z" fill="white"/>
<path d="M79.1212 326.999C75.6649 331.496 70.5773 334.448 64.9615 335.214C63.3948 335.428 61.8087 335.46 60.2347 335.308C59.7312 335.26 59.7276 336.046 60.2269 336.093C66.0842 336.587 71.8995 334.747 76.4102 330.974C77.6754 329.915 78.8133 328.713 79.8009 327.391C80.1033 326.989 79.4216 326.599 79.1212 326.999V326.999Z" fill="white"/>
<path d="M49.6009 351.392C48.7974 350.246 48.1297 349.01 47.6114 347.71C46.4274 344.745 46.0071 341.529 46.3892 338.359C46.958 336.66 47.6057 334.991 48.3326 333.354C48.3766 333.418 48.4031 333.493 48.4094 333.571C48.4158 333.649 48.4018 333.727 48.3688 333.797C47.857 335.026 47.4891 336.309 47.2724 337.622C46.4944 342.305 47.5744 347.106 50.282 351.002C50.3163 351.045 50.339 351.095 50.3482 351.149C50.3573 351.203 50.3524 351.258 50.3341 351.31C50.3038 351.378 50.2562 351.437 50.196 351.481C50.1358 351.525 50.0651 351.553 49.9909 351.561C49.9168 351.57 49.8418 351.558 49.7734 351.528C49.7049 351.499 49.6455 351.452 49.6009 351.392V351.392Z" fill="white"/>
<path d="M65.4562 311.724C64.5102 315.498 64.7919 319.475 66.2603 323.077C66.3123 323.167 66.3977 323.233 66.4979 323.26C66.598 323.288 66.7049 323.274 66.7954 323.223C66.8838 323.17 66.9483 323.085 66.9755 322.985C67.0027 322.885 66.9905 322.779 66.9414 322.688C65.5664 319.27 65.3113 315.503 66.2128 311.931C66.2363 311.832 66.2203 311.727 66.1683 311.64C66.1164 311.552 66.0325 311.488 65.9343 311.461C65.8361 311.435 65.7314 311.447 65.6422 311.496C65.553 311.545 65.4863 311.627 65.4561 311.724H65.4562Z" fill="white"/>
<path d="M44.2001 347.465L44.2478 347.604C44.1585 347.491 44.0686 347.374 43.9808 347.259C43.8344 347.075 43.693 346.889 43.5529 346.7C38.0615 339.326 34.4493 330.723 33.0292 321.636C32.7442 319.866 32.5436 318.088 32.4275 316.3C31.9468 309.392 32.7617 302.456 34.8302 295.848C35.4825 293.666 36.4426 291.588 37.6814 289.677C37.8677 289.405 38.0591 289.139 38.2615 288.881C39.4727 287.238 41.1627 286.012 43.0989 285.372C43.8099 285.154 44.5476 285.035 45.2911 285.02C45.5505 285.012 45.8075 285.018 46.0645 285.033C47.6649 285.189 49.2159 285.675 50.6202 286.459C52.0246 287.243 53.2521 288.309 54.2258 289.59C55.6629 291.51 56.7085 293.693 57.3028 296.017C57.3643 296.236 57.4222 296.456 57.4766 296.678C57.8519 298.237 58.1258 299.819 58.2966 301.414C60.1219 317.601 55.1546 335.42 44.2001 347.465Z" fill="#F2F2F2"/>
<path d="M45.2788 285.081C44.276 293.079 43.5764 301.107 43.1802 309.166C42.7857 317.217 42.6967 325.275 42.9131 333.341C43.0345 337.854 43.2518 342.362 43.565 346.867C43.5996 347.365 44.3839 347.403 44.3489 346.898C43.7909 338.856 43.5375 330.801 43.5886 322.733C43.641 314.672 43.9988 306.622 44.662 298.58C45.0333 294.082 45.5002 289.592 46.0627 285.112C46.1255 284.611 45.3414 284.582 45.2788 285.081V285.081Z" fill="white"/>
<path d="M56.744 296.355C55.7698 301.944 52.6341 306.924 48.0168 310.214C46.7286 311.132 45.3385 311.898 43.8744 312.495C43.4063 312.687 43.7678 313.385 44.2318 313.194C49.6477 310.907 53.9439 306.574 56.1876 301.135C56.8169 299.61 57.2666 298.016 57.5278 296.386C57.6087 295.889 56.8243 295.861 56.744 296.355V296.355Z" fill="white"/>
<path d="M41.9206 331.683C40.6772 331.042 39.5126 330.259 38.4502 329.348C36.0259 327.273 34.1617 324.621 33.0291 321.636C32.7441 319.866 32.5435 318.088 32.4274 316.3C32.4962 316.336 32.5544 316.39 32.5961 316.456C32.6378 316.522 32.6617 316.598 32.6652 316.676C32.782 318.001 33.0518 319.309 33.4691 320.573C34.9529 325.081 38.1372 328.83 42.343 331.022C42.3931 331.044 42.4367 331.078 42.4698 331.121C42.5029 331.165 42.5243 331.216 42.5319 331.27C42.5367 331.345 42.522 331.419 42.4891 331.486C42.4563 331.553 42.4065 331.61 42.3447 331.652C42.2828 331.694 42.2112 331.719 42.1368 331.724C42.0624 331.73 41.9879 331.716 41.9206 331.683V331.683Z" fill="white"/>
<path d="M37.5544 289.182C38.4677 292.964 40.5628 296.355 43.5347 298.862C43.6225 298.918 43.7286 298.936 43.83 298.914C43.9314 298.891 44.0199 298.83 44.0764 298.743C44.1299 298.654 44.1474 298.549 44.1252 298.448C44.103 298.347 44.0428 298.258 43.9571 298.201C41.1535 295.813 39.1797 292.596 38.3204 289.013C38.2951 288.915 38.2326 288.83 38.1459 288.776C38.0593 288.723 37.9553 288.705 37.8559 288.727C37.7565 288.749 37.6695 288.809 37.6133 288.894C37.557 288.979 37.5359 289.082 37.5544 289.182L37.5544 289.182Z" fill="white"/>
<path d="M44.5396 366.524L44.6546 366.615C44.5187 366.568 44.3802 366.518 44.2442 366.469C44.0219 366.393 43.8024 366.312 43.5827 366.228C34.9887 362.975 27.3167 357.674 21.2316 350.783C20.0394 349.446 18.9134 348.055 17.8537 346.612C13.7325 341.051 10.6873 334.767 8.87548 328.084C8.25099 325.894 7.942 323.625 7.95786 321.347C7.96832 321.017 7.98658 320.69 8.01798 320.363C8.155 318.326 8.91956 316.382 10.2063 314.799C10.6881 314.232 11.2459 313.734 11.8639 313.32C12.0782 313.174 12.2979 313.04 12.5227 312.914C13.9554 312.183 15.5234 311.756 17.1286 311.66C18.7338 311.564 20.3415 311.8 21.8512 312.354C24.0945 313.197 26.1503 314.473 27.901 316.11C28.0709 316.262 28.2383 316.416 28.4031 316.573C29.5583 317.685 30.6404 318.871 31.6424 320.122C41.8885 332.777 47.29 350.469 44.5396 366.524Z" fill="#F2F2F2"/>
<path d="M11.8866 313.379C15.3445 320.658 19.0743 327.8 23.0759 334.804C27.075 341.8 31.3353 348.638 35.8569 355.317C38.3868 359.054 40.9955 362.736 43.6828 366.362C43.9801 366.764 44.6612 366.372 44.36 365.966C39.5636 359.491 35.0166 352.841 30.7191 346.015C26.4266 339.195 22.3968 332.219 18.6295 325.086C16.522 321.095 14.5002 317.06 12.5638 312.982C12.3472 312.526 11.6707 312.924 11.8866 313.379Z" fill="white"/>
<path d="M27.6122 316.696C29.7984 321.931 29.8354 327.818 27.7151 333.079C27.1235 334.547 26.3641 335.942 25.452 337.235C25.1609 337.649 25.8406 338.042 26.1292 337.631C29.4622 332.784 30.7508 326.817 29.7154 321.024C29.4247 319.4 28.9462 317.814 28.2895 316.3C28.09 315.837 27.4141 316.237 27.6122 316.696Z" fill="white"/>
<path d="M34.1288 354.456C32.7362 354.586 31.3332 354.553 29.9481 354.359C26.7891 353.917 23.7917 352.688 21.2315 350.784C20.0393 349.446 18.9133 348.055 17.8536 346.612C17.9313 346.605 18.0093 346.619 18.0799 346.652C18.1505 346.685 18.2113 346.736 18.2563 346.8C19.0679 347.854 19.9987 348.811 21.0302 349.65C24.7057 352.649 29.406 354.091 34.1288 353.67C34.1826 353.662 34.2378 353.667 34.2891 353.686C34.3403 353.705 34.3859 353.736 34.4215 353.778C34.4656 353.838 34.4933 353.909 34.5017 353.983C34.5101 354.057 34.4989 354.132 34.4693 354.201C34.4397 354.269 34.3927 354.329 34.333 354.373C34.2732 354.418 34.2028 354.446 34.1288 354.456V354.456Z" fill="white"/>
<path d="M7.58452 320.999C10.3886 323.693 13.9783 325.42 17.8312 325.931C18.0429 325.959 18.2213 325.73 18.2233 325.538C18.2209 325.435 18.1788 325.336 18.1058 325.263C18.0327 325.19 17.9344 325.148 17.8312 325.145C14.1845 324.645 10.7907 322.999 8.13914 320.443C7.77559 320.093 7.22024 320.647 7.58449 320.999H7.58452Z" fill="white"/>
<path d="M98.0751 262.967C98.841 262.441 99.4825 261.754 99.9544 260.953C100.426 260.152 100.717 259.258 100.806 258.332C100.895 257.407 100.781 256.473 100.471 255.597C100.16 254.721 99.6619 253.924 99.0104 253.261L101.475 198.2L88.9296 199.61L89.6584 253.467C88.6192 254.636 88.0444 256.147 88.0432 257.712C88.042 259.277 88.6143 260.788 89.6518 261.959C90.6892 263.13 92.1197 263.879 93.6722 264.065C95.2247 264.251 96.7912 263.86 98.0751 262.967V262.967Z" fill="#FFB8B8"/>
<path d="M120.96 356.172L128.1 357.428L135.157 330.458L125.802 328.604L120.96 356.172Z" fill="#FFB8B8"/>
<path d="M140.704 366.489L118.265 362.54L119.789 353.861L133.559 356.284C134.697 356.484 135.785 356.907 136.76 357.529C137.736 358.15 138.579 358.957 139.243 359.905C139.906 360.853 140.377 361.922 140.627 363.051C140.878 364.181 140.904 365.349 140.704 366.489V366.489V366.489Z" fill="#2F2E41"/>
<path d="M101.363 359.75L108.613 359.749L112.061 331.758L101.362 331.759L101.363 359.75Z" fill="#FFB8B8"/>
<path d="M122.593 366.488L99.8098 366.489L99.8094 357.677L113.79 357.676C116.125 357.676 118.364 358.604 120.015 360.257C121.666 361.909 122.593 364.15 122.593 366.488V366.488L122.593 366.488Z" fill="#2F2E41"/>
<path d="M132.201 352.085C132.088 352.085 131.975 352.078 131.863 352.065L123.33 351.362C122.942 351.316 122.567 351.192 122.228 350.996C121.889 350.801 121.593 350.539 121.358 350.225C121.124 349.912 120.955 349.554 120.863 349.174C120.771 348.793 120.757 348.398 120.822 348.012L128.701 303.805L123.377 275.704C123.333 275.475 123.209 275.271 123.026 275.127C122.844 274.983 122.616 274.91 122.384 274.922C122.152 274.934 121.932 275.029 121.765 275.19C121.597 275.351 121.494 275.567 121.473 275.798L114.818 350.754C114.745 351.506 114.382 352.2 113.808 352.69C113.233 353.18 112.491 353.428 111.737 353.38L103.699 353.081C102.994 353.031 102.332 352.724 101.838 352.219C101.344 351.714 101.051 351.046 101.016 350.339L100.476 260.503L142.152 255.288L145.063 300.299L145.052 300.347L135.005 349.877C134.852 350.506 134.492 351.065 133.984 351.466C133.476 351.866 132.848 352.084 132.201 352.085V352.085Z" fill="#2F2E41"/>
<path d="M114.216 162.52C122.237 162.52 128.739 156.011 128.739 147.982C128.739 139.952 122.237 133.443 114.216 133.443C106.195 133.443 99.6931 139.952 99.6931 147.982C99.6931 156.011 106.195 162.52 114.216 162.52Z" fill="#FFB8B8"/>
<path d="M127.901 267.069C125.629 267.082 123.401 266.444 121.481 265.23C114.446 260.829 106.455 262.578 102.318 264.013C101.908 264.157 101.47 264.206 101.038 264.156C100.606 264.107 100.19 263.961 99.8227 263.728C99.4592 263.5 99.1521 263.192 98.9243 262.828C98.6966 262.464 98.554 262.053 98.5074 261.626L90.9844 194.367C89.7238 183.098 96.5048 172.503 107.108 169.174C107.506 169.049 107.911 168.93 108.323 168.818C111.623 167.923 115.079 167.762 118.447 168.347C121.815 168.932 125.015 170.249 127.82 172.206C130.677 174.184 133.067 176.764 134.821 179.766C136.574 182.768 137.65 186.118 137.971 189.581L144.304 257.291C144.347 257.729 144.288 258.171 144.131 258.583C143.975 258.995 143.725 259.364 143.401 259.663C141.181 261.718 134.737 267.068 127.901 267.069Z" fill="#22CA96"/>
<path d="M104.993 208.79L88.0202 206.922C87.5372 206.869 87.0715 206.712 86.6545 206.462C86.2376 206.213 85.8792 205.876 85.604 205.475C85.3287 205.075 85.1429 204.619 85.0593 204.14C84.9757 203.661 84.9963 203.17 85.1195 202.699L89.4397 186.216C89.7254 183.744 90.9786 181.487 92.9244 179.938C94.8703 178.39 97.3501 177.677 99.82 177.957C102.29 178.236 104.549 179.484 106.101 181.428C107.653 183.371 108.371 185.852 108.099 188.325L108.741 205.299C108.759 205.785 108.672 206.269 108.487 206.719C108.301 207.168 108.021 207.572 107.665 207.904C107.309 208.235 106.887 208.486 106.425 208.639C105.964 208.792 105.476 208.843 104.993 208.79V208.79Z" fill="#22CA96"/>
<path d="M144.236 260.609C144.933 259.995 145.487 259.235 145.859 258.383C146.231 257.531 146.412 256.608 146.39 255.679C146.367 254.75 146.141 253.837 145.727 253.004C145.314 252.172 144.723 251.44 143.996 250.861L139.814 195.905L127.522 198.675L134.737 252.194C133.846 253.48 133.458 255.049 133.645 256.603C133.832 258.157 134.582 259.588 135.753 260.625C136.924 261.662 138.434 262.234 139.998 262.231C141.561 262.228 143.069 261.651 144.236 260.609V260.609Z" fill="#FFB8B8"/>
<path d="M122.809 205.335C122.453 205.004 122.173 204.6 121.987 204.151C121.802 203.701 121.715 203.217 121.734 202.731L122.375 185.757C122.103 183.284 122.821 180.803 124.373 178.86C125.925 176.916 128.184 175.668 130.654 175.388C133.124 175.109 135.604 175.822 137.55 177.37C139.496 178.919 140.749 181.176 141.034 183.648L145.355 200.131C145.478 200.602 145.498 201.093 145.415 201.572C145.331 202.051 145.145 202.507 144.87 202.907C144.595 203.308 144.237 203.645 143.82 203.894C143.403 204.144 142.937 204.301 142.454 204.354L125.481 206.222C124.998 206.275 124.51 206.224 124.048 206.071C123.587 205.918 123.164 205.667 122.809 205.335V205.335Z" fill="#22CA96"/>
<path d="M113.352 163.068C113.094 163.068 112.837 163.038 112.586 162.979L112.512 162.961C99.7429 161.005 96.9211 153.601 96.3016 150.509C95.6605 147.308 96.3906 144.218 98.0402 143.018C97.1408 140.175 97.2852 137.654 98.4702 135.523C100.537 131.805 105.023 130.548 105.624 130.394C109.206 127.749 113.492 129.515 114.272 129.873C121.201 127.307 123.85 129.443 124.329 129.92C127.426 130.477 129.314 131.674 129.941 133.481C131.118 136.873 127.395 141.093 127.236 141.271L127.154 141.363L121.607 141.628C121.081 141.653 120.566 141.788 120.095 142.026C119.624 142.263 119.209 142.596 118.875 143.005C118.542 143.413 118.298 143.887 118.159 144.396C118.021 144.905 117.99 145.437 118.07 145.959V145.959C118.22 146.631 118.41 147.295 118.638 147.945C119.586 150.908 120.295 153.44 119.38 154.402C119.172 154.589 118.917 154.713 118.642 154.76C118.368 154.808 118.085 154.777 117.827 154.672C116.96 154.44 116.371 154.489 116.078 154.817C115.623 155.325 115.762 156.613 116.47 158.442C116.692 159.021 116.752 159.649 116.643 160.259C116.533 160.869 116.26 161.438 115.851 161.904C115.543 162.267 115.161 162.559 114.729 162.76C114.298 162.961 113.828 163.066 113.352 163.068Z" fill="#2F2E41"/>
<path d="M284.868 209.545H213.32C210.655 209.542 208.1 208.481 206.215 206.595C204.331 204.708 203.271 202.15 203.268 199.482V91.8498C203.271 89.1818 204.331 86.6241 206.215 84.7375C208.1 82.851 210.655 81.7899 213.32 81.7869H284.868C287.534 81.7899 290.089 82.851 291.973 84.7375C293.858 86.6241 294.918 89.1818 294.921 91.8498V199.482C294.918 202.15 293.858 204.708 291.973 206.595C290.089 208.481 287.534 209.542 284.868 209.545ZM213.32 82.9707C210.969 82.9734 208.714 83.9097 207.051 85.5743C205.389 87.2389 204.453 89.4957 204.451 91.8498V199.482C204.453 201.836 205.389 204.093 207.051 205.758C208.714 207.422 210.969 208.359 213.32 208.361H284.868C287.22 208.359 289.474 207.422 291.137 205.758C292.8 204.093 293.735 201.836 293.738 199.482V91.8498C293.735 89.4957 292.8 87.2389 291.137 85.5743C289.474 83.9097 287.22 82.9734 284.868 82.9707H213.32Z" fill="#22CA96"/>
<path d="M273.929 133.531H224.259C222.927 133.53 221.649 132.999 220.707 132.056C219.765 131.113 219.235 129.834 219.233 128.5V104.822C219.235 103.489 219.765 102.21 220.707 101.266C221.649 100.323 222.927 99.7925 224.259 99.791H273.929C275.262 99.7926 276.539 100.323 277.481 101.266C278.424 102.21 278.954 103.489 278.955 104.822V128.5C278.954 129.834 278.424 131.113 277.481 132.056C276.539 132.999 275.262 133.53 273.929 133.531Z" fill="#22CA96"/>
<path d="M270.381 155.729H227.807C226.553 155.729 225.349 155.23 224.462 154.342C223.575 153.454 223.077 152.249 223.077 150.994C223.077 149.738 223.575 148.533 224.462 147.645C225.349 146.757 226.553 146.258 227.807 146.258H270.381C271.636 146.258 272.839 146.757 273.726 147.645C274.613 148.533 275.112 149.738 275.112 150.994C275.112 152.249 274.613 153.454 273.726 154.342C272.839 155.23 271.636 155.729 270.381 155.729Z" fill="#CCCCCC"/>
<path d="M270.381 173.487H227.807C226.553 173.487 225.349 172.988 224.462 172.1C223.575 171.212 223.077 170.008 223.077 168.752C223.077 167.496 223.575 166.291 224.462 165.403C225.349 164.515 226.553 164.016 227.807 164.016H270.381C271.636 164.016 272.839 164.515 273.726 165.403C274.613 166.291 275.112 167.496 275.112 168.752C275.112 170.008 274.613 171.212 273.726 172.1C272.839 172.988 271.636 173.487 270.381 173.487Z" fill="#CCCCCC"/>
<path d="M270.381 191.245H227.807C226.553 191.245 225.349 190.746 224.462 189.858C223.575 188.97 223.077 187.766 223.077 186.51C223.077 185.254 223.575 184.049 224.462 183.161C225.349 182.273 226.553 181.774 227.807 181.774H270.381C271.636 181.774 272.839 182.273 273.726 183.161C274.613 184.049 275.112 185.254 275.112 186.51C275.112 187.766 274.613 188.97 273.726 189.858C272.839 190.746 271.636 191.245 270.381 191.245Z" fill="#CCCCCC"/>
<path d="M459.304 269.923H387.756C385.091 269.92 382.536 268.858 380.651 266.972C378.767 265.085 377.707 262.528 377.704 259.86V152.227C377.707 149.559 378.767 147.001 380.651 145.115C382.536 143.228 385.091 142.167 387.756 142.164H459.304C461.969 142.167 464.524 143.228 466.409 145.115C468.293 147.001 469.354 149.559 469.357 152.227V259.86C469.354 262.528 468.293 265.085 466.409 266.972C464.524 268.858 461.969 269.92 459.304 269.923ZM387.756 143.348C385.405 143.351 383.15 144.287 381.487 145.952C379.824 147.616 378.889 149.873 378.886 152.227V259.86C378.889 262.214 379.824 264.471 381.487 266.135C383.15 267.8 385.405 268.736 387.756 268.739H459.304C461.656 268.736 463.91 267.8 465.573 266.135C467.236 264.471 468.171 262.214 468.174 259.86V152.227C468.171 149.873 467.236 147.616 465.573 145.952C463.91 144.287 461.656 143.351 459.304 143.348H387.756Z" fill="#22CA96"/>
<path d="M444.817 168.751H402.243C400.988 168.751 399.785 168.253 398.898 167.364C398.011 166.476 397.513 165.272 397.513 164.016C397.513 162.76 398.011 161.556 398.898 160.668C399.785 159.779 400.988 159.281 402.243 159.281H444.817C446.072 159.281 447.275 159.779 448.162 160.668C449.049 161.556 449.548 162.76 449.548 164.016C449.548 165.272 449.049 166.476 448.162 167.364C447.275 168.253 446.072 168.751 444.817 168.751Z" fill="#CCCCCC"/>
<path d="M444.817 186.51H402.243C400.988 186.51 399.785 186.011 398.898 185.123C398.011 184.234 397.513 183.03 397.513 181.774C397.513 180.518 398.011 179.314 398.898 178.426C399.785 177.537 400.988 177.039 402.243 177.039H444.817C446.072 177.039 447.275 177.537 448.162 178.426C449.049 179.314 449.548 180.518 449.548 181.774C449.548 183.03 449.049 184.234 448.162 185.123C447.275 186.011 446.072 186.51 444.817 186.51Z" fill="#CCCCCC"/>
<path d="M448.365 231.793H398.695C397.363 231.791 396.085 231.26 395.143 230.317C394.201 229.374 393.671 228.095 393.669 226.761V203.084C393.671 201.75 394.201 200.471 395.143 199.528C396.085 198.584 397.363 198.054 398.695 198.052H448.365C449.698 198.054 450.975 198.584 451.917 199.528C452.86 200.471 453.39 201.75 453.391 203.084V226.761C453.39 228.095 452.86 229.374 451.917 230.317C450.975 231.26 449.698 231.791 448.365 231.793V231.793Z" fill="#E6E6E6"/>
<path d="M444.817 252.806H402.243C400.988 252.806 399.785 252.307 398.898 251.419C398.011 250.531 397.513 249.327 397.513 248.071C397.513 246.815 398.011 245.611 398.898 244.722C399.785 243.834 400.988 243.335 402.243 243.335H444.817C446.072 243.335 447.275 243.834 448.162 244.722C449.049 245.611 449.548 246.815 449.548 248.071C449.548 249.327 449.049 250.531 448.162 251.419C447.275 252.307 446.072 252.806 444.817 252.806Z" fill="#CCCCCC"/>
<path d="M415.548 98.8533H343.999C341.334 98.8503 338.779 97.7891 336.895 95.9026C335.01 94.0161 333.95 91.4583 333.947 88.7904V22.0014C333.95 19.3335 335.01 16.7757 336.895 14.8891C338.779 13.0026 341.334 11.9415 343.999 11.9385H415.548C418.213 11.9415 420.768 13.0026 422.652 14.8891C424.537 16.7757 425.597 19.3335 425.6 22.0014V88.7904C425.597 91.4583 424.537 94.0161 422.652 95.9026C420.768 97.7891 418.213 98.8503 415.548 98.8533V98.8533ZM343.999 13.1223C341.648 13.125 339.393 14.0613 337.73 15.7259C336.068 17.3905 335.132 19.6473 335.13 22.0014V88.7904C335.132 91.1444 336.068 93.4013 337.73 95.0659C339.393 96.7304 341.648 97.6668 343.999 97.6694H415.548C417.899 97.6668 420.154 96.7304 421.816 95.0659C423.479 93.4013 424.414 91.1444 424.417 88.7904V22.0014C424.414 19.6473 423.479 17.3905 421.816 15.7259C420.154 14.0613 417.899 13.125 415.548 13.1223H343.999Z" fill="#22CA96"/>
<path d="M401.06 77.8894H358.486C357.232 77.8894 356.029 77.3905 355.141 76.5024C354.254 75.6143 353.756 74.4099 353.756 73.1539C353.756 71.898 354.254 70.6935 355.141 69.8055C356.029 68.9174 357.232 68.4185 358.486 68.4185H401.06C402.315 68.4185 403.518 68.9174 404.405 69.8055C405.293 70.6935 405.791 71.898 405.791 73.1539C405.791 74.4099 405.293 75.6143 404.405 76.5024C403.518 77.3905 402.315 77.8894 401.06 77.8894Z" fill="#CCCCCC"/>
<path d="M401.06 60.1314H358.486C357.232 60.1314 356.029 59.6325 355.141 58.7444C354.254 57.8563 353.756 56.6518 353.756 55.3959C353.756 54.14 354.254 52.9355 355.141 52.0474C356.029 51.1593 357.232 50.6604 358.486 50.6604H401.06C402.315 50.6604 403.518 51.1593 404.405 52.0474C405.293 52.9355 405.791 54.14 405.791 55.3959C405.791 56.6518 405.293 57.8563 404.405 58.7444C403.518 59.6325 402.315 60.1314 401.06 60.1314Z" fill="#CCCCCC"/>
<path d="M401.06 42.3733H358.486C357.232 42.3733 356.029 41.8744 355.141 40.9863C354.254 40.0982 353.756 38.8938 353.756 37.6378C353.756 36.3819 354.254 35.1774 355.141 34.2893C356.029 33.4013 357.232 32.9023 358.486 32.9023H401.06C402.315 32.9023 403.518 33.4013 404.405 34.2893C405.293 35.1774 405.791 36.3819 405.791 37.6378C405.791 38.8938 405.293 40.0982 404.405 40.9863C403.518 41.8744 402.315 42.3733 401.06 42.3733Z" fill="#CCCCCC"/>
<path d="M289.008 98.2612C296.519 98.2612 302.608 92.1658 302.608 84.6467C302.608 77.1277 296.519 71.0322 289.008 71.0322C281.496 71.0322 275.407 77.1277 275.407 84.6467C275.407 92.1658 281.496 98.2612 289.008 98.2612Z" fill="#22CA96"/>
<path d="M287.66 89.8404C287.354 89.841 287.056 89.7419 286.811 89.5582L286.796 89.5468L283.6 87.0971C283.451 86.9839 283.326 86.8423 283.232 86.6806C283.138 86.5189 283.077 86.3402 283.052 86.1548C283.027 85.9693 283.039 85.7808 283.087 85.6C283.135 85.4192 283.218 85.2497 283.332 85.1012C283.446 84.9527 283.588 84.8281 283.749 84.7346C283.911 84.6411 284.09 84.5805 284.275 84.5562C284.461 84.532 284.649 84.5446 284.829 84.5934C285.01 84.6422 285.179 84.7262 285.327 84.8405L287.397 86.4295L292.289 80.0426C292.403 79.8945 292.544 79.7702 292.706 79.6768C292.867 79.5834 293.045 79.5227 293.23 79.4983C293.415 79.4739 293.603 79.4861 293.783 79.5344C293.963 79.5827 294.132 79.6659 294.28 79.7795L294.25 79.8209L294.281 79.7801C294.579 80.0098 294.775 80.3486 294.824 80.7222C294.873 81.0959 294.772 81.4738 294.544 81.7731L288.789 89.2856C288.656 89.4588 288.485 89.5989 288.289 89.6951C288.093 89.7913 287.878 89.841 287.66 89.8404V89.8404Z" fill="white"/>
<path d="M466.4 159.231C473.911 159.231 480 153.135 480 145.616C480 138.097 473.911 132.002 466.4 132.002C458.889 132.002 452.8 138.097 452.8 145.616C452.8 153.135 458.889 159.231 466.4 159.231Z" fill="#3F3D56"/>
<path d="M465.052 150.81C464.746 150.81 464.448 150.711 464.203 150.527L464.188 150.516L460.992 148.066C460.843 147.953 460.718 147.812 460.624 147.65C460.53 147.488 460.469 147.309 460.444 147.124C460.419 146.939 460.431 146.75 460.479 146.569C460.527 146.388 460.611 146.219 460.724 146.07C460.838 145.922 460.98 145.797 461.142 145.704C461.304 145.61 461.482 145.55 461.668 145.525C461.853 145.501 462.041 145.514 462.222 145.563C462.402 145.611 462.571 145.695 462.719 145.81L464.789 147.399L469.681 141.012C469.795 140.864 469.936 140.739 470.098 140.646C470.259 140.553 470.438 140.492 470.622 140.468C470.807 140.443 470.995 140.455 471.175 140.504C471.355 140.552 471.524 140.635 471.672 140.749L471.642 140.79L471.673 140.749C471.972 140.979 472.167 141.318 472.216 141.691C472.265 142.065 472.165 142.443 471.936 142.742L466.182 150.255C466.048 150.428 465.877 150.568 465.681 150.664C465.485 150.761 465.27 150.81 465.052 150.81Z" fill="white"/>
<path d="M423.234 27.229C430.746 27.229 436.835 21.1336 436.835 13.6145C436.835 6.09543 430.746 0 423.234 0C415.723 0 409.634 6.09543 409.634 13.6145C409.634 21.1336 415.723 27.229 423.234 27.229Z" fill="#3F3D56"/>
<path d="M421.886 18.8082C421.58 18.8088 421.283 18.7097 421.038 18.526L421.023 18.5146L417.826 16.0649C417.678 15.9517 417.553 15.8101 417.459 15.6484C417.365 15.4867 417.304 15.308 417.279 15.1226C417.254 14.9371 417.266 14.7486 417.314 14.5678C417.362 14.387 417.445 14.2175 417.559 14.069C417.673 13.9205 417.814 13.7959 417.976 13.7024C418.138 13.6088 418.317 13.5482 418.502 13.524C418.688 13.4998 418.876 13.5124 419.056 13.5612C419.237 13.61 419.406 13.6939 419.554 13.8082L421.624 15.3973L426.516 9.0104C426.63 8.86226 426.771 8.73794 426.933 8.64455C427.094 8.55116 427.272 8.49051 427.457 8.46608C427.642 8.44165 427.83 8.45391 428.01 8.50217C428.19 8.55042 428.359 8.63373 428.507 8.74732L428.477 8.78866L428.508 8.74792C428.806 8.97757 429.002 9.31638 429.051 9.69C429.1 10.0636 428.999 10.4416 428.771 10.7409L423.016 18.2534C422.883 18.4265 422.712 18.5666 422.516 18.6628C422.32 18.7591 422.105 18.8088 421.886 18.8082Z" fill="white"/>
<path d="M225.88 367H0.591308C0.434483 367 0.284081 366.938 0.17319 366.827C0.0622979 366.716 0 366.565 0 366.408C0 366.251 0.0622979 366.101 0.17319 365.99C0.284081 365.879 0.434483 365.816 0.591308 365.816H225.88C226.036 365.816 226.187 365.879 226.298 365.99C226.409 366.101 226.471 366.251 226.471 366.408C226.471 366.565 226.409 366.716 226.298 366.827C226.187 366.938 226.036 367 225.88 367Z" fill="#3F3D56"/>
</svg>
