<svg height="512" viewBox="0 0 60 52" width="512" xmlns="http://www.w3.org/2000/svg"><g id="022---Seal" fill="none"><g id="Icons" transform="translate(1 1)"><path id="Shape" d="m58 17-5 15-8.88-4.82z" fill="#783e22"/><path id="Shape" d="m54.03 19.91-3.57 10.71-6.34-3.44z" fill="#a0522d"/><path id="Shape" d="m53 32-11 7h-15l-7.22-2.17-.78-17.55.64-5.39z" fill="#6d4122"/><path id="Shape" d="m49.92 34-7.92 5h-15l-7.22-2.17c-.9-20.2-.87-16.79-.54-19.53z" fill="#91562d"/><path id="Shape" d="m10 0-2.48 8.15-7.52-2.15v-5z" fill="#91562d"/><path id="Shape" d="m10 0-7 23 16-4 1-8z" fill="#825a2c"/><path id="Shape" d="m19 19-6.97 13.93-9.03-9.93z" fill="#91562d"/><path id="Shape" d="m19 19-11 22 12 1z" fill="#a0522d"/><path id="Shape" d="m8 41 9 9 3-8z" fill="#91562d"/></g><path id="Shape" d="m59.41 18.19-13.41 9.81-23.28-12.66.28-2.22c.0348205-.2870946-.0563537-.575205-.25-.79l-10-11c-.2137799-.24028888-.5300849-.36308966-.85-.33l-10 1c-.51290129.05154198-.90258325.48452193-.9 1v5c-.017082.46200383.28476248.87548942.73 1l6.54 1.87-4.27 13.84c-.11582309.3484439-.03136643.7323378.22 1l8.57 9.43-3.68 7.41c-.18971316.384432-.11328557.84702.19 1.15l9 9c.2408364.2433765.5894481.3466153.9239734.273628.3345253-.0729874.6084523-.3120528.7260266-.633628l3-8c.1-.27.08 0-.1-4.16l5.86 1.82h15.29c.42 0-.48.5 11.54-7.16.1898072-.1259511.3309241-.312931.4-.53l5-15c.1303481-.4094648-.0154677-.8564254-.3622053-1.1102464-.3467376-.2538209-.8168659-.2577475-1.1677947-.0097536zm-56.41-10.94v-3.35l7.61-.76-1.76 5.78zm9.44-3.25 8.56 9.33-.86 6.87-13.67 3.4zm-5.57 21.56 12.26-3.06-5.34 10.68zm11.74 24.63-6-6 8 .67zm-7-8.06 8.56-17.23.78 18zm32.1-2.13h-14.56l-6.41-1.92-.74-17.08.45-3.57 30.55 16.64zm10.72-7.45-6.43-3.5 10.08-7.39z" fill="#000" transform="translate(-1 -1)"/></g></svg>