<svg height="512" viewBox="0 0 60 49" width="512" xmlns="http://www.w3.org/2000/svg"><g id="023---Pig" fill="none"><g id="Icons" transform="translate(1 1)"><path id="Shape" d="m4 16h-3c-.55228475 0-1 .4477153-1 1v7c0 .5522847.44771525 1 1 1h1z" fill="#e91e63"/><path id="Shape" d="m17.46 18 3.42.28-5.74 15.17-13.14-8.45 2-9 5-9 7.73 10.63c.1794132.2218191.4450279.3564457.73.37z" fill="#ef314c"/><path id="Shape" d="m54 30-6 17-6.15-12.3z" fill="#bb193b"/><path id="Shape" d="m50.53 31.34-4.29 12.14-4.39-8.78z" fill="#ef314c"/><path id="Shape" d="m52 3h3l3-3v8l-4 1z" fill="#e91e63"/><path id="Shape" d="m52.29 11.29 1.71-2.29-2-6-4 4z" fill="#ef314c"/><path id="Shape" d="m57.82 17.58-3.82 12.42-44 17 10.88-28.68 6.7.56c.3233688.0268162.6396466-.1049321.8483487-.3533871.2087022-.2484549.283881-.5827264.2016513-.8966129l-3.63-13.63h20l12.57 12.57c.2657101.2633916.3621663.6530746.25 1.01z" fill="#bb193b"/><path id="Shape" d="m54.82 18.58-3.82 12.42-40.93 15.81 10.81-28.49 6.7.56c.3233688.0268162.6396466-.1049321.8483487-.3533871.2087022-.2484549.283881-.5827264.2016513-.8966129l-3.36-12.63h16.73l12.57 12.57c.2657101.2633916.3621663.6530746.25 1.01z" fill="#ef314c"/><path id="Shape" d="m9 7 3-3h13l3.63 13.63c.0822297.3138865.0070509.648158-.2016513.8966129-.2087021.248455-.5249799.3802033-.8483487.3533871l-10.12-.88c-.2915876-.0233194-.558345-.173142-.73-.41z" fill="#e91e63"/></g><path id="Shape" d="m58.29 1.29-2.7 2.71h-2.59c-.265803-.00153676-.5212812.10281349-.71.29l-3.29 3.3c-2.45-2.46-2.45-2.59-3-2.59h-33c-.265803-.00153676-.5212812.10281349-.71.29-3.49 3.49-2.95 2.93-3.09 3.14s-.6 1-4.79 8.57h-3.41c-.55228475 0-1 .4477153-1 1v9c0 .5522847.44771525 1 1 1h1.71l12.21 7.85-4.86 12.8c-.13703427.3691375-.0446925.7843299.2358823 1.0605883.2805749.2762583.6971489.3621522 1.0641177.2194117l31-12 5.75 11.49c.182343.3538075.5571495.565789.9543275.5397445.3971781-.0260444.7410933-.2851552.8756725-.6597445 7.56-21.42 4.68-12.66 9.84-29.46.2162312-.7078275.0238875-1.4772022-.5-2l-4.67-4.68 1-1.31 3.63-.85c.4571833-.1128155.7737136-.5293028.76-1v-8c.0023626-.40626507-.2413038-.77358004-.6165185-.92937095s-.807391-.069089-1.0934815.21937095zm-5.73 5.56 1.33 4-.71.95-2.77-2.8zm-39.15.15h11.82l3.44 12.89-10.13-.89-7.23-9.9zm-11.21 19h-.2v-7h1.75zm1.93.54 1.81-8.18 4.17-7.5 6.81 9.36c.3430728.467416.8721052.7629444 1.45.81l2.1.18-4.83 12.73zm44.71 19.91-4.61-9.22 9.1-3.51zm9-27.17-3.68 12-41.46 16 9.82-25.88 5.95.5c.6490036.0547083 1.2839972-.21003 1.7019307-.70956s.5664539-1.1712777.3980693-1.80044l-3.27-12.39h18.29zm.16-10.06-2.34.59-1.27-3.81c1.81 0 2 .07 2.32-.29l1.29-1.3z" fill="#000" transform="translate(0 -1)"/></g></svg>