<svg height="512" viewBox="0 0 60 60" width="512" xmlns="http://www.w3.org/2000/svg"><g id="024---Star" fill="none"><g id="Icons" transform="translate(1 1)"><path id="Shape" d="m57.82 21-17.81 14.73h-22.02l-17.81-14.73z" fill="#d84315"/><path id="Shape" d="m52.73 21-15.72 13h-21.11l-15.72-13z" fill="#ff5722"/><path id="Shape" d="m11.36 58 17.64-13.83 17.64 13.83c-13.06-44.58-9.09-31.62-17.64-58-11.26 34.75-2.18 6.09-17.64 58z" fill="#ffdc00"/><path id="Shape" d="m46.64 58-17.64-13.83v-44.17c8.56 26.44 4.63 13.6 17.64 58z" fill="#f57c00"/><path id="Shape" d="m42.73 54.93-13.73-10.76v-34.91c5.07 15.65 1.93 5.33 13.73 45.67z" fill="#ff9801"/></g><path id="Shape" d="m17.84 37.08-6.44 21.63c-.145957.4273214.0125728.8994407.3868483 1.1520766.3742755.252636.8714232.2230991 1.2131517-.0720766l17-13.35c18.48 14.49 17.14 13.56 17.64 13.56.3217356.012956.6300258-.1298052.8282609-.3835461.1982352-.253741.2621588-.5874136.1717391-.8964539l-6.4-21.72 17.22-14.23c.3248561-.2691834.4458287-.7132874.3023708-1.110038-.1434578-.3967506-.5204816-.6607882-.9423708-.659962h-21.29l-6.53-20.31c-.1348836-.41037454-.5180268-.6877501-.95-.6877501s-.8151164.27737556-.95.6877501l-6.63 20.31h-21.29c-.42188922-.0008262-.79891296.2632114-.94237081.659962-.14345784.3967506-.02248532.8408546.30237081 1.110038zm38.21-14.08-14.42 11.92-3.49-11.92zm-25.05-15.67c.92 3 14.81 49 14.81 49l-14.81-11.65zm-2 0v37.35l-14.79 11.59c3.54-12.27 11.07-36.75 14.79-48.94zm-7.13 15.67-3.42 12-14.45-12z" fill="#000"/></g></svg>