<svg height="512" viewBox="0 0 60 60" width="512" xmlns="http://www.w3.org/2000/svg"><g id="025---Boat" fill="none"><g id="Icons" transform="translate(1 1)"><path id="Shape" d="m46 18h-34l17-18z" fill="#283593"/><path id="Shape" d="m42 18h-30l15-15.89z" fill="#3f51b5"/><path id="Shape" d="m58 18-6.81 27.24c-.1128155.4571833-.5293028.7737136-1 .76h-42.41c-.47069718.0137136-.88718447-.3028167-1-.76l-6.78-27.24z" fill="#283593"/><path id="Shape" d="m55 18-6.81 27.24c-.1128155.4571833-.5293028.7737136-1 .76h-39.41c-.47069718.0137136-.88718447-.3028167-1-.76l-6.78-27.24z" fill="#3f51b5"/><path id="Shape" d="m58 18-29 40-29-40z" fill="#0377bc"/><path id="Shape" d="m54 18-27 37.24-27-37.24z" fill="#02a9f4"/></g><path id="Shape" d="m9 49h12.79l8.4 11.59c.1880653.2597632.4893047.4135701.81.4135701s.6219347-.1538069.81-.4135701l8.4-11.59h12.79c.4706972.0137136.8871845-.3028167 1-.76l7-28c.0751846-.3035358.0040503-.6247663-.1922534-.8681828-.1963036-.2434165-.4951725-.3809901-.8077466-.3718172h-11.57l-16.7-17.69c-.1890717-.20195032-.4533557-.31655285-.73-.31655285s-.5409283.11460253-.73.31655285l-16.7 17.69h-11.57c-.31257407-.0091729-.61144303.1284007-.80774664.3718172s-.267438.564647-.19225336.8681828l7 28c.11281553.4571833.52930282.7737136 1 .76zm43.22-2h-10.56l16.12-22.23zm-21.22-43.54 14.68 15.54h-29.36zm27 17.54-27 37.3-27-37.3zm-37.66 26h-10.56l-5.56-22.23z" fill="#000" transform="translate(-1 -1)"/></g></svg>