<svg height="512" viewBox="0 0 60 60" width="512" xmlns="http://www.w3.org/2000/svg"><g id="026---Flower" fill="none"><g id="Icons" transform="translate(1 1)"><path id="Shape" d="m38 32.56 8.59-12 11.41 2.44-13-12h-11l2.29-2.29c.1893127-.1877666.2957983-.44336246.2957983-.71s-.1064856-.5222334-.2957983-.71l-6.58-6.58c-.1877666-.18931265-.4433625-.29579832-.71-.29579832s-.5222334.10648567-.71.29579832l-6.58 6.58c-.1893127.1877666-.2957983.44336246-.2957983.71s.1064856.5222334.2957983.71l2.29 2.29h-11l-13 12 11.38-2.47 8.59 12-1.97 1.47h-16l27 24 27-24h-16z" fill="#894b9d"/><path id="Shape" d="m37 8-6 6v13.45l-2-1.45-2 1.45v-13.45l-6-6 8-8z" fill="#ffdc00"/><path id="Shape" d="m23 18-23 5 13-12z" fill="#9d27b0"/><path id="Shape" d="m26.83 27.58-6.86 4.98-8.59-12.03 11.62-2.53z" fill="#673ab7"/><path id="Shape" d="m58 23-23-5 10-7z" fill="#6a1b9a"/><path id="Shape" d="m52.66 21.84-17.66-3.84 7.68-5.37z" fill="#9d27b0"/><path id="Shape" d="m46.62 20.53-8.59 12.03-6.86-4.98 3.83-9.58z" fill="#4527a0"/><g fill="#673ab7"><path id="Shape" d="m43.62 19.97-7.83 10.96-4.62-3.35 3.8-9.49z"/><path id="Shape" d="m45 11-10 7-3.83 9.58-.17-.13v-13.45l3-3z"/><path id="Shape" d="m27 14v13.45l-.17.13-3.83-9.58-10-7h11z"/></g><path id="Shape" d="m40 34-11 24c-2.68-5.84-.4-.85-11-24l11-8z" fill="#549414"/><path id="Shape" d="m37.17 31.94-10.17 21.79-9-19.73c2.33-1.71 9.48-6.9 11-8z" fill="#60a917"/><path id="Shape" d="m29 58-27-24h16z" fill="#008a00"/><path id="Shape" d="m56 34-27 24 11-24z" fill="#007900"/><path id="Shape" d="m51.88 34-20.04 17.81 8.16-17.81z" fill="#008a00"/></g><path id="Shape" d="m2.21 26 10.79-2.36 7.63 10.7-.9.66h-15.73c-.41563181.0005971-.78756312.2582244-.93423169.6471183-.14666857.388894-.03749292.8279673.27423169 1.1028817 28.94 25.72 27.1 24.25 27.66 24.25s-1.47 1.64 27.66-24.25c.3117246-.2749144.4209003-.7139877.2742317-1.1028817-.1466686-.3888939-.5185999-.6465212-.9342317-.6471183h-15.68l-.9-.66 7.63-10.7 10.74 2.36c.439796.0938625.8881516-.11739 1.0957692-.5162956.2076175-.3989055.1234229-.8873334-.2057692-1.1937044l-13-12c-.1813033-.1799761-.4246119-.28374-.68-.29h-8.59l1.3-1.29c.1893127-.1877666.2957983-.4433625.2957983-.71 0-.26663754-.1064856-.5222334-.2957983-.71l-8-8c-.1877666-.18931265-.4433625-.29579832-.71-.29579832s-.5222334.10648567-.71.29579832l-8 8c-.1893127.1877666-.2957983.44336246-.2957983.71 0 .2666375.1064856.5222334.2957983.71l1.3 1.29h-8.59c-.2526349.0008725-.4955769.0973348-.68.27l-13 12c-.3513716.301471-.44986394.8047142-.23806902 1.2164054.21179492.4116913.67849216.6241722 1.12806902.5135946zm12.86-2.8 9.32-2 3.22 8.07-5.41 3.89zm-8.44 13.8h12.73l8.75 19.09zm24.37 20.6-9.75-21.27 9.75-7.09 9.75 7.09zm11.64-20.6h12.73l-21.48 19.09zm-2.84-3.84-5.41-3.93 3.22-8.07 9.32 2zm16.82-9.92-17.17-3.73 7.46-5.23zm-12.79-9.24c-8 5.62-7.6 5.23-7.76 5.63l-2.07 5.18v-8.4l2.41-2.41zm-12.83-10.59 6.59 6.59-5.3 5.29c-.1871865.1887188-.2915368.444197-.29.71v11.49l-.41-.3c-.3514198-.2567957-.8285802-.2567957-1.18 0l-.41.3v-11.49c.0015368-.265803-.1028135-.5212812-.29-.71l-5.3-5.29zm-5.41 10.59 2.41 2.41v8.4l-2.07-5.18c-.16-.4.26 0-7.76-5.63zm-10.5.28 7.46 5.23-17.17 3.73z" fill="#000" transform="translate(-1 -1)"/></g></svg>