<svg height="512" viewBox="0 0 60 48" width="512" xmlns="http://www.w3.org/2000/svg"><g id="027---Flower" fill="none"><g id="Icons" transform="translate(1 1)"><path id="Shape" d="m41.41 11.28c-.1.1.14 0-12.41 3.48l-12.41-3.48 12.41-11.28z" fill="#4527a0"/><path id="Shape" d="m38.37 12.13-9.37 2.63-12.41-3.48 10.42-9.47z" fill="#673ab7"/><path id="Shape" d="m29 14.76-29-8.12 16.31 38.75c.1579051.3728713.5250886.6137121.93.61l20.43.0000423z" fill="#ef314c"/><path id="Shape" d="m58 6.64-16.31 38.75c-.1579051.3728713-.5250886.6137121-.93.61h-23.52c-.4037019-.0020151-.7665964-.2465745-.92-.62l-10.11-24.24z" fill="#ad1457"/><path id="Shape" d="m54.6 7.59-15.91 37.8c-.1579051.3728713-.5250886.6137121-.93.61h-20.52c-.4037019-.0020151-.7665964-.2465745-.92-.62l-10.11-24.24z" fill="#e91e63"/></g><path id="Shape" d="m59.73 6.68-16 4.5-12-10.92c-.3806191-.34351854-.9593809-.34351854-1.34 0l-12 10.92-16-4.5c-.37710335-.16157937-.81464087-.07643587-1.10363471.21476404-.28899384.2911999-.37080765.72937224-.20636529 1.10523596l16.31 38.78c.3144115.7423652 1.0438057 1.2233711 1.85 1.22h23.52c.8061943.0033711 1.5355885-.4776348 1.85-1.22l16.31-38.78c.1320307-.3500786.0575917-.74457646-.1929331-1.02246943-.2505247-.27789298-.6352215-.39268875-.9970669-.29753057zm-28.73-4.33 10.4 9.46-10.4 2.91-10.4-2.91zm-27.27 6.81 23.56 6.6-18.59 5.24zm39.03 36.84h-23.52l-9.76-23.17 48.79-13.67z" fill="#000" transform="translate(-1)"/></g></svg>