<svg height="512" viewBox="0 0 52 61" width="512" xmlns="http://www.w3.org/2000/svg"><g id="028---Flower" fill="none"><g id="Icons" transform="translate(1 1)"><path id="Shape" d="m44 29 6-14-15.33-2.74c-.1-.1.21.27-9.67-12.26l-9.68 12.26-15.32 2.74c9.06 21.14-3.52-8.29 9.64 22.6 8.3266667.76 8.3266667.76 0 0 0-.1 0 .06-3.66-8.57l-5.98 13.97c16.06 2.87 15.28 2.68 15.36 2.78l9.64 12.22 9.67-12.26c1.23-.25-4.34.77 15.33-2.74-6.26-14.6-6-13.93-6-14z" fill="#3b97d3"/><path id="Shape" d="m40.92 37.91-7.19-13.8 6.63-3.71c9.64 22.71-.07-.06 9.64 22.6l-15.28 2.73c.64-.8.16-.19 6.2-7.82z" fill="#02a9f4"/><path id="Shape" d="m40.92 37.91c-6.52 8.23-11.92 15.09-15.92 20.09l-9.64-12.22 9.64 1.74c7.67-12 .58-.85 8.74-13.63z" fill="#3f51b5"/><path id="Shape" d="m33.74 33.89c-6 9.36 3.37-5.23-8.74 13.63v-18.52z" fill="#00bcd4"/><path id="Shape" d="m25 39v8.52c-8.1-1.46-13-2.37-25-4.52l6-14c3.71 8.67 3.66 8.47 3.66 8.57z" fill="#02a9f4"/><path id="Shape" d="m16.28 33.89-6.64 3.71c-9.64-22.71.07.06-9.64-22.6l15.32-2.74-6.19 7.85c.1.1 7.15 13.68 7.15 13.78z" fill="#3f51b5"/><path id="Shape" d="m34.65 12.24-9.65-1.74-8.74 13.61c-7.26-4.07-7-3.9-7.13-4 14.54-18.44 9.49-12.01 15.87-20.11z" fill="#0377bc"/><path id="Shape" d="m30.33 11.46-5.33-.96-8.74 13.61c-7.26-4.07-7-3.9-7.13-4 7.79-9.88 4.62-5.87 14-17.76z" fill="#02a9f4"/><path id="Shape" d="m50 15-6 14c-2.14-5-1.31-3.09-3.65-8.57-3.61-.34-.5 0-15.36-1.4v-8.53z" fill="#3f51b5"/><g fill="#00bcd4"><path id="Shape" d="m40.36 20.4-15.36 8.6v-10z"/><path id="Shape" d="m40.92 37.91-15.92-8.91 8.73-4.89z"/><path id="Shape" d="m25 29-8.72 4.88-7.14-13.76c8.97 5.02 5.34 3 15.86 8.88z"/><path id="Shape" d="m25 10.5v18.5l-8.74-4.89z"/><path id="Shape" d="m25 29v10l-15.36-1.4c9.74-5.44-.02.01 15.36-8.6z"/></g><path id="Shape" d="m50 15-6 14c-1-2.4-1.37-3.21-1.7-4l4.52-10.54z" fill="#283593"/><path id="Shape" d="m40.92 37.91c-6.52 8.23-11.92 15.09-15.92 20.09l-1.85-2.35c1.37-1.73 10.41-13.21 15.13-19.22z" fill="#283593"/><path id="Shape" d="m50 43-2.65.47c-5.18-12 .45 1.43-9.41-21.71.57-.31 1-.56 2.42-1.36 9.64 22.71-.07-.06 9.64 22.6z" fill="#0377bc"/></g><path id="Shape" d="m52.18 16-15-2.68-9.39-11.94c-.1894263-.24407939-.4810387-.38689316-.79-.38689316s-.6005737.14281377-.79.38689316l-9.43 12-14.96 2.62c-.29741754.0551089-.55390836.2418774-.69766151.508015-.14375315.2661375-.15931862.5830409-.04233849.861985l5.83 13.63-5.83 13.61c-.12460554.281067-.11299453.6038297.03148488.8752167s.40576582.4612289.70851512.5147833l15 2.68 9.43 12c.1894263.2440794.4810387.3868932.79.3868932s.6005737-.1428138.79-.3868932l9.43-12 15-2.68c.2974175-.0551089.5539084-.2418774.6976615-.508015.1437532-.2661375.1593186-.5830409.0423385-.861985l-5.91-13.63 5.83-13.61c.1246055-.281067.1129945-.6038297-.0314849-.8752167s-.4057658-.4612289-.7085151-.5147833zm-25.18-12.39 7.25 9.19-7.07-1.28c-.3910756-.0644709-.7833202.1081167-1 .44l-8.25 12.81-5.29-3c16.05-20.27 1.36-1.65 14.36-18.16zm2 27.39 6.26-3.51 5.17 9.91zm5.28 5.25-6.28 9.86v-13.41zm-6.33-7v-7.15l11.06 1zm-2 3.42v7.23l-11.06-1zm-7.31 1.8-5.14-9.89c5.07 2.83 4 2.23 4.17 2.34h.09l7.24 4.08zm1-8.76 6.36-9.8v13.38zm-16.26-8 11.49-2.05-4.57 5.78c-.2426259.3090866-.2817493.7316194-.1 1.08l6.7 12.92-4.82 2.69c-3.97-9.43-2.08-5.01-8.66-20.37zm0 26.48 4.62-10.64 2.72 6.45c.1426147.3411443.461835.5757519.83.61l14.45 1.3v6.41c-6.33-1.17-6.57-1.22-22.58-4.08zm23.62 14.2-7.24-9.18c7.6 1.39 7.11 1.31 7.24 1.31.3399921-.0005664.6564045-.1738399.84-.46l8.23-12.84 5.33 3c-4.62 5.78-3.78 4.7-14.4 18.17zm23.58-14.15-11.47 2 4.59-5.75c.2501308-.3091431.2933205-.7371141.11-1.09l-6.75-12.89 4.82-2.69c2.97 7.03 1.84 4.39 8.7 20.42zm-4.58-15.79-2.72-6.45c-.1426147-.3411443-.461835-.5757519-.83-.61l-14.45-1.3v-6.39c5.17.94 19.56 3.52 22.58 4.06z" fill="#000" transform="translate(-1 -1)"/></g></svg>