<svg height="512" viewBox="0 0 60 57" width="512" xmlns="http://www.w3.org/2000/svg"><g id="029---Flower" fill="none"><g id="Icons" transform="translate(1 1)"><path id="Shape" d="m44.29 15.67c-3.5941178 1.3173547-6.8134837 3.4899119-9.38 6.33 1.90806-3.3250508 2.9692144-7.0682815 3.09-10.9 0-8-9-11-9-11s-9 3-9 11c.1207856 3.8317185 1.18194 7.5749492 3.09 10.9-2.5709888-2.8255314-5.7899783-4.9841075-9.38-6.29-7.61-2.51-13.24 5.12-13.24 5.12s.07 9.49 7.68 12c3.6789697 1.0625262 7.5623574 1.2067368 11.31.42-3.4998921 1.5660463-6.560065 3.9702226-8.91 7-4.7 6.47.82 14.19.82 14.19s9 2.86 13.74-3.61c2.1680945-3.2015848 3.5049686-6.8925944 3.89-10.74.3963409 3.8231692 1.7327388 7.4888158 3.89 10.67 4.7 6.47 13.74 3.61 13.74 3.61s5.52-7.72.82-14.19c-2.3447172-3.0227227-5.3933385-5.4259151-8.88-7 3.7375556.7870705 7.6113238.6428345 11.28-.42 7.61-2.47 7.68-12 7.68-12s-5.63-7.56-13.24-5.09z" fill="#f0c419"/><path id="Shape" d="m38 11.1c0 6.27-3.64 12.8-7.66 17.52-.6432494-.5819702-1.5883201-.6829393-2.34-.25-1.4127679-2.2868695-3.0581817-4.4215508-4.91-6.37-1.90806-3.3250508-2.9692144-7.0682815-3.09-10.9 0-5.93 4.94-9.1 7.5-10.36.4867273-.24319041.9876303-.45690902 1.5-.64 0 0 9 3 9 11z" fill="#f57c00"/><path id="Shape" d="m35 11.1c0 6.08-3.34 12.19-7.19 17-1.3665007-2.1852808-2.9476684-4.2287391-4.72-6.1.17 0-3.09-4.81-3.09-10.9 0-5.93 4.94-9.1 7.5-10.36 2.56 1.26 7.5 4.43 7.5 10.36z" fill="#ff9801"/><path id="Shape" d="m27 30.52c-2.606918.6260559-5.1408317 1.5243216-7.56 2.68-3.7542862.7811755-7.6419965.6404904-11.33-.41-7.61-2.47-7.68-12-7.68-12s5.67-7.59 13.28-5.12c6 1.94 11 7.38 14.29 12.7-.7680355.4204954-1.1732465 1.291699-1 2.15z" fill="#ffeb3a"/><path id="Shape" d="m29 40.09c-.3963409 3.8231692-1.7327388 7.4888158-3.89 10.67-4.7 6.47-13.74 3.61-13.74 3.61s-5.52-7.72-.82-14.19c3.66-5.04 10.45-8.18 16.45-9.66.1805137.8439358.8820113 1.4768963 1.74 1.57-.1899337 2.6684881-.1028016 5.3494758.26 8z" fill="#ffdc00"/><path id="Shape" d="m46.63 54.37c-1.9694299.5520529-4.0227554.7417992-6.06.56-3.0489079-.1921178-5.8583716-1.7175688-7.68-4.17-3.7-5.09-4.57-12.49-4.1-18.67.8501302.0735967 1.6533227-.4002868 2-1.18 2.4857106 1.0251339 5.0689064 1.7957371 7.71 2.3 3.4843092 1.5917343 6.5387952 3.9914427 8.91 7 4.74 6.44-.78 14.16-.78 14.16z" fill="#fdd834"/><path id="Shape" d="m43.63 54.37c-1.000088.2826173-2.0246403.4701171-3.06.56-3.0489079-.1921178-5.8583716-1.7175688-7.68-4.17-3.7-5.09-4.57-12.49-4.1-18.67.4605445.0482019.9235452-.0648975 1.31-.32 1.7769003.6083653 3.5948202 1.0895794 5.44 1.44 3.4843092 1.5917343 6.5387952 3.9914427 8.91 7 4.7 6.44-.82 14.16-.82 14.16z" fill="#ffeb3a"/><path id="Shape" d="m57.53 20.83s-.07 9.49-7.68 12c-5.93 1.94-13.21.52-19-1.88.3473635-.7891534.1498791-1.7120907-.49-2.29 1.7415219-2.0577295 3.2662496-4.2895288 4.55-6.66 2.87-3 7-6 10.94-6.66 6.81-1.11 11.68 5.49 11.68 5.49z" fill="#fec108"/><path id="Shape" d="m54.53 20.83s-.07 9.49-7.68 12c-1.5141655.4824794-3.0832925.7714407-4.67.86-3.9074493-.288206-7.7414231-1.2137644-11.35-2.74.3473635-.7891534.1498791-1.7120907-.49-2.29 1.7484817-2.0568043 3.2799344-4.2886369 4.57-6.66 2.87-3 7-6 10.94-6.66 5.15.77 8.68 5.49 8.68 5.49z" fill="#ffdc00"/><path id="Shape" d="m31 30.1c-.0120563 1.0135536-.7804489 1.8578269-1.7883923 1.9650006-1.0079435.1071737-1.9366901-.5566442-2.1616077-1.5450006-.0750258-.7145312.2368454-1.414811.8181347-1.8370508.5812892-.4222398 1.3436849-.5022914 2-.21.656315.2922914 1.1068395.9125196 1.1818653 1.6270508z" fill="#ff5722"/></g><path id="Shape" d="m51.16 34.74c8.2-2.66 8.37-12.49 8.37-12.9 0-.2163702-.0701779-.4269038-.2-.6-.24-.34-6.15-8.19-14.35-5.52-2.2615655.7627698-4.3780141 1.9021358-6.26 3.37.8217756-2.2435265 1.2546558-4.6108403 1.28-7 0-8.62-9.29-11.82-9.68-11.95-.2075731-.07010994-.4324269-.07010994-.64 0-.39.13-9.68 3.33-9.68 12 .0278684 2.3889166.4606714 4.7558076 1.28 7-1.8849025-1.4868824-4.0083514-2.6432829-6.28-3.42-8.19-2.67-14.09 5.18-14.33 5.52-.12982213.1730962-.2.3836298-.2.6 0 .41.17 10.24 8.37 12.9 2.2784024.7174059 4.6629692 1.0387305 7.05.95-1.9826483 1.3288034-3.7242619 2.9858726-5.15 4.9-5.07 7 .57 15 .82 15.36.1205161.1801296.301364.311333.51.37 1.6028575.4589018 3.2627624.6878542 4.93.68 7.1 0 11-4.25 13-11 2.05 6.79 5.93 11 13 11 1.6643665.0036572 3.3208473-.2286542 4.92-.69.208636-.058667.3894839-.1898704.51-.37.25-.34 5.89-8.38.82-15.36-1.4277773-1.9088207-3.1651383-3.5650597-5.14-4.9 2.386353.0897957 4.7705403-.2280959 7.05-.94zm-21.16-32.57c1.52.6 8 3.55 8 9.93 0 5.77-3.26 11.76-6.88 16.22-.18-.07-.12.9-.12-11.22 0-.5522847-.4477153-1-1-1s-1 .4477153-1 1v10.42c-1.2135762-1.812548-2.5748761-3.5216985-4.07-5.11-1.8078685-3.144178-2.8141275-6.6849735-2.93-10.31 0-6.36 6.48-9.32 8-9.93zm-20.54 30.67c-6.05-2-6.87-9.05-7-10.68 1-1.26 5.84-6.51 11.91-4.54 5.5 1.79 10.18 6.73 13.3 11.57-.1.13.76.34-10.7-3.37-.5170805-.1475676-1.0582834.1401931-1.225095.65139-.1668117.511197.1004975 1.0627879.605095 1.24861l9.91 3.22c-2.1049175.5954577-4.155588 1.3682225-6.13 2.31-3.5367484.737118-7.200245.5963464-10.67-.41zm15.84 18.33c-3.73 5.15-10.71 3.74-12.3 3.34-.88-1.39-4.38-7.6-.64-12.74 3.36-4.62 9.56-7.61 15.11-9.07.09.14.55-.58-6.51 9.14-.2643322.4463148-.1435146 1.020651.2782316 1.3226421s1.0043876.2313663 1.3417684-.1626421l6.13-8.44c-.0856276 2.1742917.0113795 4.3519344.29 6.51-.3745135 3.6219068-1.6462033 7.0932762-3.7 10.1zm4.7-19.07c-.5522847 0-1-.4477153-1-1s.4477153-1 1-1 1 .4477153 1 1-.4477153 1-1 1zm17.64 9.67c3.74 5.14.24 11.35-.64 12.74-1.59.4-8.57 1.81-12.3-3.34-3.4-4.68-4.27-11.41-4-17.17.16 0-.42-.77 6.68 9 .192624.3252383.5521755.5140678.9292782.488039s.7073009-.262467.8534132-.611086c.1461122-.3486189.0831645-.7498314-.1626914-1.036953l-6.1-8.44c2.0668956.7664364 4.1943239 1.3585037 6.36 1.77 3.2890614 1.4848516 6.1657316 3.7504869 8.38 6.6zm-14.64-10.48c0-.17-.75.14 10.64-3.57.5045975-.1858221.7719067-.737413.605095-1.24861-.1668116-.5111969-.7080145-.7989576-1.225095-.65139l-9.91 3.18c1.3489188-1.7208457 2.5530325-3.5504295 3.6-5.47 2.4356328-2.6764732 5.4870741-4.7187765 8.89-5.95 6-2 10.87 3.28 11.91 4.54-.1 1.64-.9 8.71-7 10.68-5.45 1.83-12.11.59-17.51-1.51z" fill="#000"/></g></svg>