<svg height="512" viewBox="0 0 60 52" width="512" xmlns="http://www.w3.org/2000/svg"><g id="040---Rabbit-Ear-Fold" fill="none"><g id="Icons" transform="translate(1 1)"><path id="Shape" d="m41 13-19 3h-22l29-16z" fill="#ffeb3a"/><path id="Shape" d="m58 16h-36l19-3-12-13z" fill="#fec108"/><path id="Shape" d="m22 16 19-3-6.81-7.38 18.81 10.38z" fill="#ffdc00"/><path id="Shape" d="m58 16-29 34-29-34z" fill="#f57c00"/><path id="Shape" d="m54.15 16-27.08 31.74-27.07-31.74z" fill="#ff9801"/></g><g id="Layer_10" fill="#000" transform="translate(-1 -1)"><path id="Shape" d="m60.48 17.12-29-16c-.3094011-.17863279-.6905989-.17863279-1 0l-29 16c-.26521776.1444714-.45093605.4010669-.50530365.698147-.05436761.2970802.02844005.6028177.22530365.831853l29 34c.1899882.2221664.4676758.3500769.76.3500769s.5700118-.1279105.76-.3500769l29-34c.2001851-.2236463.2893256-.5253847.2428115-.8219116-.046514-.2965269-.2237627-.5564788-.4828115-.7080884zm-4.36-.12h-19.37l6.41-1c.3644854-.0592524.6666522-.3145482.7859339-.6640226.1192817-.3494743.0362619-.736241-.2159339-1.0059774l-7.81-8.47zm-26.79-12.94c.0962551.42525284.4569414.73912265.8914139.77570981.4344726.03658716.8425694-.21254301 1.0085861-.61570981l.14-.35 9.63 10.43-17.08 2.7h-18zm2.67 44.94c0-.5522847-.4477153-1-1-1s-1 .4477153-1 1c0 .42 2.71 3.46-25.83-30h25.83v1c0 .5522847.4477153 1 1 1s1-.4477153 1-1v-1h25.83c-28.64 33.58-25.83 30.42-25.83 30z"/><path id="Shape" d="m31 23c-.5522847 0-1 .4477153-1 1v1c0 .5522847.4477153 1 1 1s1-.4477153 1-1v-1c0-.5522847-.4477153-1-1-1z"/><path id="Shape" d="m31 28c-.5522847 0-1 .4477153-1 1v1c0 .5522847.4477153 1 1 1s1-.4477153 1-1v-1c0-.5522847-.4477153-1-1-1z"/><path id="Shape" d="m31 33c-.5522847 0-1 .4477153-1 1v1c0 .5522847.4477153 1 1 1s1-.4477153 1-1v-1c0-.5522847-.4477153-1-1-1z"/><path id="Shape" d="m31 38c-.5522847 0-1 .4477153-1 1v1c0 .5522847.4477153 1 1 1s1-.4477153 1-1v-1c0-.5522847-.4477153-1-1-1z"/><path id="Shape" d="m31 43c-.5522847 0-1 .4477153-1 1v1c0 .5522847.4477153 1 1 1s1-.4477153 1-1v-1c0-.5522847-.4477153-1-1-1z"/><path id="Shape" d="m25.73 16c.4996062.1877548 1.0586032-.049929 1.27-.54l.7-1.87c.1268293-.3340433.0658144-.7103747-.160061-.9872338-.2258753-.276859-.5822953-.4121842-.935-.355-.3527046.0571843-.6481097.2981905-.774939.6322338l-.7 1.88c-.1619655.5071505.1018073 1.0522809.6 1.24z"/><path id="Shape" d="m27.84 10.43c.2492527.0936734.5255717.0840711.7677204-.0266791s.4301283-.3135015.5222796-.5633209l.7-1.87c.1497093-.33938573.0992561-.73375754-.1310703-1.02452422-.2303265-.29076669-.6026796-.43015022-.9673228-.36209943-.3646431.06805079-.6616591.33235397-.7716069.68662365l-.71 1.87c-.0936734.24925266-.0840711.52557169.0266791.7677204.1107502.2421487.3135015.4301283.5633209.5222796z"/></g></g></svg>