<svg id="Bold" height="512" viewBox="0 0 32 32" width="512" xmlns="http://www.w3.org/2000/svg"><path d="m26 32h-20c-3.314 0-6-2.686-6-6v-20c0-3.314 2.686-6 6-6h20c3.314 0 6 2.686 6 6v20c0 3.314-2.686 6-6 6z" fill="rgb(240,219,79,20%)"/><path d="m22.667 20.456v-.956c0-1.93-.665-3.676-1.782-5.027l.744-2.082c.007-.019.003-.038.008-.058h.697c.368 0 .667-.299.667-.667s-.299-.666-.668-.666h-2.667c-.367 0-.666.298-.666.667s.299.667.667.667h.566l-.392 1.098c-1.349-1.107-3.087-1.765-5.007-1.765h-1.167c0-.368.299-.667.667-.667h1.833c.368 0 .667-.299.667-.667s-.299-.667-.667-.667h-1.833c-1.103 0-2 .897-2 2v2.716c-2.443.329-4.334 2.421-4.334 4.951 0 2.757 2.243 5 5 5s5-2.243 5-5c0-2.531-1.891-4.623-4.333-4.95v-1.383h1.167c3.706 0 6.5 2.794 6.5 6.5v.956c-.775.276-1.334 1.009-1.334 1.877 0 1.103.897 2 2 2s2-.897 2-2c0-.868-.559-1.601-1.333-1.877zm-6.648-3.199c.287.416.489.894.584 1.41h-1.726c-.023-.065-.048-.128-.078-.19zm0 4.153-1.219-1.22c.03-.062.054-.125.078-.19h1.726c-.096.515-.298.994-.585 1.41zm-6.622-1.41h1.726c.023.065.048.128.078.19l-1.22 1.22c-.287-.416-.489-.895-.584-1.41zm.584-2.743 1.219 1.219c-.03.062-.054.125-.078.19h-1.725c.095-.515.297-.993.584-1.409zm2.162 3.876c.062.03.125.054.19.078v1.726c-.515-.095-.994-.297-1.41-.584zm1.524.078c.065-.023.128-.048.19-.078l1.219 1.219c-.416.287-.894.489-1.41.584v-1.725zm-1.334-3.755c-.065.023-.128.048-.19.078l-1.219-1.219c.416-.287.894-.489 1.41-.584v1.725zm2.743-1.142-1.219 1.219c-.062-.03-.125-.054-.19-.078v-1.725c.515.096.993.297 1.409.584z" fill="rgb(240,219,79,100%)"/></svg>