<svg id="bold" enable-background="new 0 0 32 32" height="512" viewBox="0 0 32 32" width="512" xmlns="http://www.w3.org/2000/svg"><path d="m26 32h-20c-3.314 0-6-2.686-6-6v-20c0-3.314 2.686-6 6-6h20c3.314 0 6 2.686 6 6v20c0 3.314-2.686 6-6 6z" fill="rgb(240,219,79,20%)"/><path d="m17.833 16.5h-3.333c-.276 0-.5-.224-.5-.5s.224-.5.5-.5h3.333c.276 0 .5.224.5.5s-.224.5-.5.5z" fill="rgb(240,219,79,40%)"/><path d="m17.833 22.667h-2c-.276 0-.5-.224-.5-.5v-12.334c0-.276.224-.5.5-.5h2c.276 0 .5.224.5.5s-.224.5-.5.5h-1.5v11.333h1.5c.276 0 .5.224.5.5 0 .277-.224.501-.5.501z" fill="rgb(240,219,79,40%)"/><g fill="rgb(240,219,79,100%)"><circle cx="10.667" cy="14" r="1.333"/><path d="m11.5 16h-1.667c-1.011 0-1.833.822-1.833 1.833v.333c0 .276.224.5.5.5h4.333c.276 0 .5-.224.5-.5v-.333c0-1.011-.822-1.833-1.833-1.833z"/><path d="m22.833 8h-4.333c-.643 0-1.167.523-1.167 1.167v1c0 .643.523 1.167 1.167 1.167h4.333c.643 0 1.167-.523 1.167-1.167v-1c0-.644-.523-1.167-1.167-1.167z"/><path d="m22.833 14.333h-4.333c-.643 0-1.167.523-1.167 1.167v1c0 .643.523 1.167 1.167 1.167h4.333c.643 0 1.167-.523 1.167-1.167v-1c0-.643-.523-1.167-1.167-1.167z"/><path d="m22.833 20.667h-4.333c-.643 0-1.167.523-1.167 1.167v1c0 .643.523 1.167 1.167 1.167h4.333c.644-.001 1.167-.524 1.167-1.168v-1c0-.643-.523-1.166-1.167-1.166z"/></g></svg>