<svg enable-background="new 0 0 32 32" height="512" viewBox="0 0 32 32" width="512" xmlns="http://www.w3.org/2000/svg"><path d="m26 32h-20c-3.314 0-6-2.686-6-6v-20c0-3.314 2.686-6 6-6h20c3.314 0 6 2.686 6 6v20c0 3.314-2.686 6-6 6z" fill="rgb(252,87,59,20%)"/><path d="m23.907 12c-.113-.2-.327-.333-.573-.333s-.461.133-.574.333c-.06.1-.093.213-.093.333v3h-2.333v-2.333c0-.368-.299-.667-.667-.667s-.667.299-.667.667v2.333h-2.333v-2.333c0-.368-.299-.667-.667-.667s-.667.299-.667.667v2.333h-2.333v-2.333c0-.368-.299-.667-.667-.667s-.666.299-.666.667v2.333h-2.334v-3c0-.12-.033-.233-.093-.333-.113-.2-.327-.333-.573-.333-.247 0-.46.133-.573.333-.061.1-.094.213-.094.333v9c0 1.1.9 2 2 2h12c1.1 0 2-.9 2-2v-9c0-.12-.033-.233-.093-.333zm-1.24 4.667v2h-2.333v-2zm-3.667 0v2h-2.333v-2zm-2.333 3.333h2.333v2h-2.333zm-1.334 2h-2.333v-2h2.333zm0-5.333v2h-2.333v-2zm-3.666 0v2h-2.334v-2zm-2.334 4.666v-1.333h2.333v2h-1.666c-.367 0-.667-.3-.667-.667zm12.667.667h-1.667v-2h2.333v1.333c.001.367-.299.667-.666.667z" fill="rgb(252,87,59,40%)"/><path d="m22 8.667h-12c-1.1 0-2 .9-2 2v1.333.667.667h.667 14.667.666v-.667-.667-1.333c0-1.1-.9-2-2-2z" fill="rgb(252,87,59,100%)"/></svg>