<svg id="bold" height="512" viewBox="0 0 32 32" width="512" xmlns="http://www.w3.org/2000/svg"><path d="m26 32h-20c-3.314 0-6-2.686-6-6v-20c0-3.314 2.686-6 6-6h20c3.314 0 6 2.686 6 6v20c0 3.314-2.686 6-6 6z" fill="rgb(240,219,79,20%)"/><path d="m9.61 23.333c-.412 0-.824-.157-1.138-.471-.628-.628-.628-1.648 0-2.276l.333-.333c.26-.26.682-.26.943 0s.26.682 0 .943l-.333.333c-.108.108-.108.283 0 .391.108.107.283.107.391 0l3-3c.26-.26.682-.26.943 0s.26.682 0 .943l-3 3c-.315.313-.727.47-1.139.47z" fill="rgb(240,219,79,40%)"/><path d="m22.834 10.5c-.171 0-.341-.065-.471-.195-.26-.26-.26-.682 0-.943l.5-.5c.26-.26.682-.26.943 0s.26.682 0 .943l-.5.5c-.131.13-.302.195-.472.195z" fill="rgb(240,219,79,40%)"/><path d="m23.138 9.529c-.135-.134-.323-.21-.51-.194-6.115.36-10.812 3.977-13.168 7.242-.146.203-.167.471-.053.694.114.222.343.362.593.362l1.233-.034v.633c0 .717.583 1.3 1.3 1.3l.6-.033v.633c0 .717.583 1.3 1.3 1.3l.6-.033v1.267c0 .25.14.479.363.593.096.049.2.073.304.073.137 0 .274-.043.39-.126 3.265-2.357 6.882-7.053 7.242-13.168.012-.189-.059-.375-.194-.509zm-11.761 6.776c2.131-2.441 5.125-4.279 8.283-5.134-2.371 1.449-5.452 3.642-7.149 6.074-.145-.51-.59-.894-1.134-.94zm2.076 1.929c1.214-1.868 3.645-3.957 6.928-5.948-1.991 3.283-4.08 5.714-5.948 6.928-.11-.487-.493-.87-.98-.98zm2.909 3.055c-.046-.544-.431-.988-.94-1.134 2.431-1.697 4.625-4.778 6.074-7.149-.854 3.159-2.693 6.153-5.134 8.283z" fill="rgb(240,219,79,100%)"/></svg>