<svg enable-background="new 0 0 32 32" height="512" viewBox="0 0 32 32" width="512" xmlns="http://www.w3.org/2000/svg"><path d="m26 32h-20c-3.314 0-6-2.686-6-6v-20c0-3.314 2.686-6 6-6h20c3.314 0 6 2.686 6 6v20c0 3.314-2.686 6-6 6z" fill="rgb(240,219,79,20%)"/><path d="m22 10h-6.457c.29.607.457 1.284.457 2s-.167 1.393-.457 2h6.457c.536 0 1.039-.207 1.416-.584s.584-.88.584-1.416c0-1.103-.897-2-2-2z" fill="rgb(240,219,79,40%)"/><circle cx="11.333" cy="12" fill="rgb(240,219,79,100%)" r="3.333"/><path d="m16 20c0-.716.167-1.393.457-2h-6.457c-1.103 0-2 .897-2 2 0 .536.207 1.039.584 1.416s.88.584 1.416.584h6.457c-.29-.607-.457-1.284-.457-2z" fill="rgb(240,219,79,40%)"/><circle cx="20.667" cy="20" fill="rgb(240,219,79,100%)" r="3.333"/></svg>