<svg id="bold" enable-background="new 0 0 32 32" height="512" viewBox="0 0 32 32" width="512" xmlns="http://www.w3.org/2000/svg"><path d="m26 32h-20c-3.314 0-6-2.686-6-6v-20c0-3.314 2.686-6 6-6h20c3.314 0 6 2.686 6 6v20c0 3.314-2.686 6-6 6z" fill="rgb(252,87,59,20%)"/><path d="m16.833 11.667h-.333c-.092 0-.167.075-.167.167v1.666c0 .092.075.167.167.167h.333c.092 0 .167-.075.167-.167v-1.667c0-.091-.075-.166-.167-.166z" fill="rgb(252,87,59,100%)"/><path d="m20.466 12.667 2.68-3.308c.204-.252.245-.59.106-.883-.14-.294-.427-.476-.752-.476h-13.16c-.367 0-.666.298-.666.666l-.007 8.667h13.833c.324 0 .612-.182.751-.475s.098-.632-.106-.883zm-7.964 1h.499v-.333c-.276 0-.499-.224-.499-.5s.224-.5.499-.5h.499c.276 0 .499.224.499.5v1.333c0 .276-.223.5-.499.5h-.998c-.643 0-1.165-.522-1.165-1.167v-1.667c0-.644.521-1.167 1.165-1.167h.998c.276 0 .499.224.499.5s-.224.5-.499.5h-.998c-.092 0-.166.075-.166.167v1.667c-.001.092.074.167.166.167zm5.491-.167c0 .644-.521 1.167-1.165 1.167h-.333c-.643 0-1.165-.522-1.165-1.167v-1.667c0-.644.521-1.167 1.165-1.167h.333c.643 0 1.165.522 1.165 1.167z" fill="rgb(252,87,59,100%)"/><path d="m9.333 24c-.368 0-.667-.299-.667-.667v-14.666c.001-.369.299-.667.667-.667.369 0 .667.298.667.667v14.667c0 .368-.298.666-.667.666z" fill="rgb(252,87,59,40%)"/></svg>