<?xml version="1.0"?>
<svg xmlns="http://www.w3.org/2000/svg" xmlns:xlink="http://www.w3.org/1999/xlink" xmlns:svgjs="http://svgjs.com/svgjs" version="1.1" width="512" height="512" x="0" y="0" viewBox="0 0 32 32" style="enable-background:new 0 0 512 512" xml:space="preserve" class=""><g><path xmlns="http://www.w3.org/2000/svg" d="m26 32h-20c-3.314 0-6-2.686-6-6v-20c0-3.314 2.686-6 6-6h20c3.314 0 6 2.686 6 6v20c0 3.314-2.686 6-6 6z" fill="rgb(252,87,59,20%)" data-original="#fff9dd" style=""/><path xmlns="http://www.w3.org/2000/svg" d="m20.378 17c-.847 0-1.747-.653-1.747-1.86v-.873c-.007-.053-.047-.107-.113-.16-1-.78-1.553-1.947-1.527-3.207.027-.967.4-1.86 1.013-2.547-.42-.16-.86-.26-1.32-.313-.033-.007-.067-.013-.107-.013-.06-.007-.113-.007-.173-.007l-.16-.007c-.079-.007-.166-.013-.286-.013-1.613 0-3.127.627-4.273 1.773-.493.493-.893 1.087-1.173 1.753-.367.793-.553 1.64-.553 2.507 0 .1.007.2.013.3v.027c-.04.267-.133.513-.26.72l-1.473 2.133c-.187.287-.28.447-.28.627 0 .453.373.827.827.827h1.213v1.853c0 .82.667 1.48 1.48 1.48.16 0 .313-.027.42-.06l1.427-.393v1.953c0 .273.227.5.5.5h5.667c.273 0 .5-.227.5-.5v-3.28c0-.793.22-1.6.633-2.327.233-.28.44-.58.62-.893z" fill="rgb(252,87,59,100%)" data-original="#ffd200" style="" class=""/><g xmlns="http://www.w3.org/2000/svg" fill="rgb(252,87,59,40%)"><path d="m22.352 14.78v.48c0 .407-.333.74-.747.74h-1.227c-.36 0-.747-.267-.747-.86v-.36z" fill="rgb(252,87,59,40%)" data-original="#ffe777" style="" class=""/><path d="m23.992 10.98c0 .9-.4 1.74-1.1 2.307-.28.227-.46.52-.52.827h-2.753c-.047-.3-.213-.58-.487-.793-.74-.58-1.16-1.453-1.14-2.4.033-1.587 1.36-2.9 2.953-2.92.807-.02 1.58.293 2.16.867.573.558.887 1.312.887 2.112z" fill="rgb(252,87,59,40%)" data-original="#ffe777" style="" class=""/></g></g></svg>
