<svg id="bold" enable-background="new 0 0 32 32" height="512" viewBox="0 0 32 32" width="512" xmlns="http://www.w3.org/2000/svg"><path d="m26 32h-20c-3.314 0-6-2.686-6-6v-20c0-3.314 2.686-6 6-6h20c3.314 0 6 2.686 6 6v20c0 3.314-2.686 6-6 6z" fill="rgb(0,187,249,20%)"/><path d="m22.221 12.635 1.418-1.476c.233-.246.361-.565.361-.898 0-.596-.403-1.116-.978-1.264l-3.589-.926c-.516-.129-1.033-.08-1.496.129l-2.192.994c-.228.102-.487.114-.725.013l-2.635-1.038c-.261-.112-.547-.169-.849-.169-.982 0-1.846.628-2.152 1.564l-1.314 4.047c-.114.4-.087.782.072 1.138l1.526 3.397-1.497 2.63c-.382.666-.101 1.512.595 1.831l2.754 1.257c.212.09.432.136.654.136.33 0 .654-.102.953-.306l3.007-2.182c.121-.082.25-.086.354-.008l2.25 1.604c.512.384 1.31.299 1.723-.161l1.568-1.676c.257-.274.448-.594.568-.955l1.294-3.926c.071-.218.109-.463.109-.709 0-.505-.171-1-.48-1.394zm.403 3.335-1.294 3.926c-.059.177-.149.328-.275.463l-1.53 1.673-2.25-1.604c-.522-.392-1.293-.426-1.908-.007l-3.007 2.182c-.104.071-.23.071-.304.04l-2.727-1.206 1.992-3.501c.113-.194.317-.314.534-.314.064 0 .097.005.125.012l2.927.612c.36.075.714-.156.789-.516s-.156-.714-.516-.789l-2.913-.609c-.125-.029-.259-.043-.412-.043-.494 0-.962.198-1.321.532-.083-.185-1.238-2.639-1.189-2.821l1.307-4.023c.163-.5.737-.783 1.226-.575l2.634 1.038c.542.232 1.213.225 1.782-.031l2.193-.994c.188-.086.402-.106.617-.051l3.569.876-3.277 3.411c-.093.097-.267.109-.365.045l-1.709-1.122c-.307-.201-.721-.116-.923.191-.202.308-.117.721.191.923l1.711 1.123c.62.405 1.534.306 2.056-.237l.931-.969 1.183 1.506c.201.255.241.594.153.859z" fill="rgb(0,187,249,100%)"/><g fill="rgb(0,187,249,40%)"><path d="m11.529 21.138c-.26-.26-.26-.682 0-.943l.4-.4c.294-.294.724-.462 1.182-.462h.222c.368 0 .667.299.667.667s-.299.667-.667.667h-.222c-.123 0-.211.043-.24.071l-.4.4c-.26.26-.682.26-.942 0z"/><path d="m14.596 14.368-.564-1.128c.216-.21.397-.62.559-.933.17-.327.043-.729-.284-.899-.328-.17-.73-.043-.899.284l-.306.595c-.015.014-.189.07-.304.02l-1.201-.52c-.338-.148-.731.008-.877.347-.146.338.009.73.347.877 1.16.503 1.261.59 1.677.636l.659 1.317c.166.332.568.461.895.298.33-.164.463-.564.298-.894z"/><path d="m20.667 17.333h-1c-.017 0-.033.007-.05.007l-1.146-1.146c-.26-.26-.682-.26-.943 0-.26.26-.26.682 0 .943l.905.905c-.043.075-.093.145-.12.229l-.28.854c-.115.35.076.726.426.841s.727-.077.841-.426l.275-.844c.037-.05 1.028-.031 1.091-.031.368 0 .667-.299.667-.667s-.298-.665-.666-.665z"/></g></svg>