<svg id="bold" enable-background="new 0 0 32 32" height="512" viewBox="0 0 32 32" width="512" xmlns="http://www.w3.org/2000/svg"><path d="m26 32h-20c-3.314 0-6-2.686-6-6v-20c0-3.314 2.686-6 6-6h20c3.314 0 6 2.686 6 6v20c0 3.314-2.686 6-6 6z" fill="rgb(0,187,249,20%)"/><g fill="rgb(0,187,249,100%)"><path d="m23.941 23.26-3.5-6.333c-.093-.167-.24-.247-.447-.26-.187 0-.353.107-.44.273l-.567 1.107 2.653 4.72c.213.373.247.827.1 1.233h1.76c.18 0 .34-.093.433-.247.088-.153.088-.34.008-.493z"/><path d="m20.768 23.253-3.193-5.687-1.273 1.08c-.267.227-.614.354-.967.354-.373 0-.727-.133-1-.38-.273.247-.627.38-1 .38-.353 0-.7-.127-.973-.36l-1.213-1.027-3.087 5.647c-.087.153-.08.34.007.493.093.154.259.247.433.247h11.833c.18 0 .34-.093.433-.247.087-.153.087-.346 0-.5z"/><path d="m18.168 11.333h-3.833c-.276 0-.5-.224-.5-.5v-2.333c0-.276.224-.5.5-.5h3.833c.195 0 .373.114.454.291.082.177.053.386-.075.535l-.721.841.721.841c.127.148.156.357.075.535-.081.177-.258.29-.454.29z"/><path d="m14.335 13.333c-.276 0-.5-.224-.5-.5v-4.333c0-.276.224-.5.5-.5s.5.224.5.5v4.333c0 .276-.224.5-.5.5z"/></g><path d="m17.075 16.68-1.42 1.2c-.093.08-.207.12-.32.12-.127 0-.253-.047-.353-.147l-.647-.647-.647.647c-.187.187-.48.193-.673.027l-1.38-1.16.493-.893 1.767-3.233c.087-.16.253-.26.44-.26.167-.02.347.093.433.253l1.807 3.207z" fill="rgb(0,187,249,40%)"/></svg>