<svg id="bold" enable-background="new 0 0 32 32" height="512" viewBox="0 0 32 32" width="512" xmlns="http://www.w3.org/2000/svg"><path d="m26 32h-20c-3.314 0-6-2.686-6-6v-20c0-3.314 2.686-6 6-6h20c3.314 0 6 2.686 6 6v20c0 3.314-2.686 6-6 6z" fill="rgb(0,187,249,20%)"/><path d="m21.667 12.667h-11.334c-1.286 0-2.333 1.047-2.333 2.333s1.047 2.333 2.333 2.333h11.333c1.287 0 2.334-1.047 2.334-2.333s-1.047-2.333-2.333-2.333zm-10.334 3h-.667c-.368 0-.666-.299-.666-.667s.298-.667.667-.667h.667c.368 0 .666.299.666.667s-.298.667-.667.667zm3.334 0h-.667c-.368 0-.667-.299-.667-.667s.298-.667.667-.667h.667c.368 0 .667.299.667.667s-.299.667-.667.667zm3.333 0h-.667c-.368 0-.667-.299-.667-.667s.298-.667.667-.667h.667c.368 0 .667.299.667.667s-.298.667-.667.667zm3.333 0h-.667c-.368 0-.666-.299-.666-.667s.298-.667.667-.667h.667c.368 0 .666.299.666.667s-.298.667-.667.667z" fill="rgb(0,187,249,100%)"/><g fill="rgb(0,187,249,100%)"><path d="m15.333 22.667v-3.667c0-.368.298-.667.667-.667.368 0 .667.299.667.667v3.667c0 .368-1.334.368-1.334 0z"/><path d="m21.333 23.333h-.846c-.583 0-1.094-.373-1.271-.929l-1.019-3.202c-.111-.351.083-.726.434-.838.349-.11.725.082.837.433l1.02 3.203h.846c.368 0 .666.299.666.667s-.298.666-.667.666z"/><path d="m11.512 23.333h-.846c-.368 0-.667-.299-.667-.667.001-.367.299-.666.668-.666h.846l1.019-3.202c.112-.351.488-.543.837-.433.351.112.545.487.434.838l-1.019 3.202c-.177.555-.688.928-1.272.928z"/><path d="m16.667 23.333h-1.333c-.368 0-.667-.299-.667-.667s.298-.667.667-.667h1.333c.368 0 .667.299.667.667-.001.369-.299.667-.667.667z"/></g><path d="m20 14c-.368 0-.667-.299-.667-.667 0-1.838-1.495-3.333-3.333-3.333s-3.333 1.495-3.333 3.333c0 .368-.299.667-.667.667s-.667-.299-.667-.667c0-2.573 2.094-4.667 4.667-4.667s4.667 2.093 4.667 4.667c0 .368-.298.667-.667.667z" fill="rgb(0,187,249,100%)"/><path d="m18.201 19.333h-4.402c-.932 0-1.808-.496-2.286-1.295l-.417-.695c-.189-.316-.087-.725.229-.915.316-.189.726-.087.915.229l.417.696c.238.399.676.647 1.142.647h4.402c.465 0 .904-.248 1.143-.647l.417-.696c.189-.315.598-.418.915-.229.316.189.418.599.229.915l-.417.696c-.479.798-1.355 1.294-2.287 1.294z" fill="rgb(0,187,249,100%)"/></svg>