<svg id="Bold" height="512" viewBox="0 0 32 32" width="512" xmlns="http://www.w3.org/2000/svg"><path d="m26 32h-20c-3.314 0-6-2.686-6-6v-20c0-3.314 2.686-6 6-6h20c3.314 0 6 2.686 6 6v20c0 3.314-2.686 6-6 6z" fill="rgb(240,219,79,20%)"/><path d="m22.682 11.5h-.73c-2.106 0-4.092 1.047-5.34 2.843l-1.278 2.181v-1.024c0-.735-.591-1.333-1.318-1.333h-4.698c-.727 0-1.318.598-1.318 1.333v5c0 2.022 1.615 3.667 3.6 3.667h1.627c1.651 0 3.18-.911 4.005-2.407l2.572-5.249c.346-.623.992-1.01 1.686-1.01h1.193c.727 0 1.318-.598 1.318-1.333v-1.333c-.001-.737-.592-1.335-1.319-1.335zm-1.193 2.667c-1.178 0-2.27.65-2.867 1.727l-2.573 5.251c-.575 1.042-1.657 1.689-2.822 1.689h-1.627c-1.25 0-2.267-1.047-2.267-2.333l-.007-3h4.674v1.48c0 .301.201.564.492.643.29.081.598-.047.75-.306l2.492-4.256c.971-1.395 2.548-2.228 4.218-2.228l.714-.006c.001.001.001.003.001.006l.015 1.333z" fill="rgb(240,219,79,100%)"/><path d="m12 13.5c-.368 0-.667-.299-.667-.667s-.299-.667-.667-.667h-1c-.918.001-1.666-.747-1.666-1.666s.748-1.667 1.667-1.667h3.667c.367 0 .666.299.666.667s-.299.667-.667.667h-3.666c-.184 0-.333.149-.333.333s.149.333.333.333h1c1.103 0 2 .897 2 2 0 .368-.299.667-.667.667z" fill="rgb(240,219,79,20%)"/></svg>