<svg id="bold" height="512" viewBox="0 0 32 32" width="512" xmlns="http://www.w3.org/2000/svg"><path d="m6 0h20c3.314 0 6 2.686 6 6v20c0 3.314-2.686 6-6 6h-20c-3.314 0-6-2.686-6-6v-20c0-3.314 2.686-6 6-6z" fill="rgb(0,187,249,20%)"/><path d="m11.463 14.508c-.173 0-.334-.09-.425-.238l-2.986-4.841c-.12-.195-.092-.448.068-.612.161-.164.412-.198.61-.082l4.158 2.439c.226.132.311.416.196.651l-1.173 2.402c-.08.164-.243.271-.425.28-.007.001-.015.001-.023.001z" fill="rgb(0,187,249,40%)"/><g fill="rgb(0,187,249,100%)"><path d="m20.811 23.327s-.001 0-.002 0l-4.839-.013c-.596 0-1.061-.538-.961-1.14l.243-1.568c-.042-.195-.205-.756-.345-1.227-1.023.31-.83.144-1.62.966-.917.961-2.255 1.109-3.133.338-1.201-1.027-.877-2.098-.509-2.9.081-.177 1.988-4.519 2.752-6.258l.375-1.676c.055-.246.244-.44.489-.501.244-.061.503.021.667.212l1.564 1.82c.66.426 3.799 2.544 4.476 4.696.912 2.907 1.478 6.334 1.501 6.478.032.193-.023.391-.15.54-.127.147-.312.233-.508.233zm-4.423-1.345 3.627.01c-.22-1.183-.69-3.51-1.319-5.517-.636-2.021-3.578-3.485-4.151-4.152l-.762-.887-.099.442c-.009.042-2.764 6.326-2.817 6.439-.123.267-.204.445-.222.575 0 .249.186.615.383.784.377.33.871.195 1.297-.252.185-.193.87-.918 1.126-.995l1.713-.519c.574-.175.777.261.926.764.371 1.249.489 1.674.503 1.896.006.114-.186 1.29-.205 1.412z"/><path d="m10.265 20.627c-.099 0 .006-3.446.16-3.386.695.268 1.161.944 1.161 1.683 0 .743-.447 1.399-1.14 1.669-.058.023-.119.034-.181.034z"/><circle cx="14.311" cy="14.333" r="1"/><path d="m16.159 12.922c1.083-.472 2.084-.597 2.975-.375.294.07.866.241 1.529.44.264.079.54.162.805.24-.38-.656-.757-1.202-1.096-1.527-1.112-1.068-2.337-1.618-3.637-1.632-.819-.013-1.633.192-2.456.614-.186.072-.317.254-.317.466 0 .137.056.262.146.352.959 1.114.135.244 1.808 1.529z"/><path d="m23.668 20.533c-.877-.897-2.73-1.939-4.199-2.185 1.137 4.393.705 4.986 1.449 4.986h1.353c.475 0 .905-.3 1.071-.753.196-.552.397-1.211.519-1.85z"/><path d="m19.083 16.955.094.006c1.559.108 3.45 1.033 4.712 2.007-.234-.946-.858-2.601-1.584-4.13l-.01-.002c-.445-.102-1.244-.341-2.017-.573-.616-.185-1.197-.359-1.461-.421-.498-.125-1.093-.062-1.737.159 1.669 1.529 1.805 2.287 2.003 2.954z"/></g></svg>