<svg id="bold" enable-background="new 0 0 32 32" height="512" viewBox="0 0 32 32" width="512" xmlns="http://www.w3.org/2000/svg"><path d="m26 32h-20c-3.314 0-6-2.686-6-6v-20c0-3.314 2.686-6 6-6h20c3.314 0 6 2.686 6 6v20c0 3.314-2.686 6-6 6z" fill="rgb(252,87,59,20%)"/><g fill="rgb(252,87,59,40%)"><path d="m16 17.173c.62-.653 1-1.533 1-2.507v3.107c-.267-.073-.547-.107-.833-.107h-.167z"/><path d="m24 9.333v10c0 .733-.6 1.333-1.333 1.333h-3.04c-.047-.353-.153-.693-.3-1h2.84c.46 0 .833-.373.833-.833v-9c0-.46-.373-.833-.833-.833-.094 0-.167.073-.167.167 0 .64-.527 1.167-1.167 1.167h-1.667c-.64 0-1.167-.527-1.167-1.167.001-.094-.072-.167-.166-.167-.46 0-.833.373-.833.833v4.833c0-.973-.38-1.853-1-2.513v-2.82c0-.733.6-1.333 1.333-1.333h5.333c.734 0 1.334.6 1.334 1.333z"/><path d="m20 14c-.551 0-1-.449-1-1s.449-1 1-1 1 .449 1 1-.449 1-1 1z"/><path d="m21.5 16.667h-3c-.276 0-.5-.224-.5-.5 0-.827.673-1.5 1.5-1.5h1c.827 0 1.5.673 1.5 1.5 0 .276-.224.5-.5.5z"/></g><path d="m13.333 17.333c-1.47 0-2.667-1.196-2.667-2.667s1.197-2.666 2.667-2.666 2.667 1.196 2.667 2.667-1.196 2.666-2.667 2.666z" fill="rgb(252,87,59,100%)"/><path d="m18.167 24h-9.667c-.276 0-.5-.224-.5-.5v-2.333c0-1.379 1.121-2.5 2.5-2.5h5.667c1.379 0 2.5 1.121 2.5 2.5v2.333c0 .276-.224.5-.5.5z" fill="rgb(252,87,59,100%)"/></svg>