<svg id="bold" height="512" viewBox="0 0 32 32" width="512" xmlns="http://www.w3.org/2000/svg"><path d="m26 0h-20c-3.314 0-6 2.686-6 6v20c0 3.314 2.686 6 6 6h20c3.314 0 6-2.686 6-6v-20c0-3.314-2.686-6-6-6z" fill="rgb(240,219,79,20%)"/><path d="m23.946 23.273-.3-.593c-.213-.433-.593-.747-1.033-.9.033-.147.053-.293.053-.447v-.667h.167c.273 0 .5-.227.5-.5s-.227-.5-.5-.5h-.187c-.073-.82-.68-1.487-1.48-1.633v-.2c0-.273-.227-.5-.5-.5s-.5.227-.5.5v.2c-.8.147-1.407.813-1.48 1.633h-.187c-.273 0-.5.227-.5.5s.227.5.5.5h.167v.667c0 .153.02.3.053.447-.44.153-.82.467-1.033.9l-.3.593c-.127.253-.027.553.22.673.073.034.153.054.227.054.18 0 .36-.1.447-.273l.3-.6c.12-.247.353-.4.62-.44.367.393.887.647 1.467.647s1.1-.253 1.467-.647c.267.04.5.193.62.44l.3.6c.085.173.265.273.445.273.073 0 .153-.02.227-.053.247-.12.347-.42.22-.674z" fill="rgb(240,219,79,40%)"/><path d="m23.579 12.673-.913-.147v-3.526h.167c.273 0 .5-.227.5-.5s-.227-.5-.5-.5h-3c-.273 0-.5.227-.5.5s.227.5.5.5h.167v3.093l-8.753-1.42c-.147-.02-.293.02-.407.113-.107.093-.173.233-.173.38v5.5h-1.5c-.64 0-1.167.527-1.167 1.167v3.667c0 .64.527 1.167 1.167 1.167h2.667v-3.333h-.833c-.64 0-1.167.527-1.167 1.167v1.167h-.668c-.093 0-.167-.073-.167-.167v-3.667c0-.093.073-.167.167-.167h6.333c.093 0 .167.073.167.167v3.666c0 .093-.073.167-.167.167h-.667v-1.167c0-.64-.527-1.167-1.167-1.167h-.833v3.333h2.667c.393 0 .747-.2.96-.5 0-.007 0-.013.007-.013l.033-.073c.027-.053.053-.107.08-.153.06-.133.087-.273.087-.427v-.833h.073c-.047-.16-.073-.327-.073-.5 0-.687.38-1.287.947-1.6.28-.653.78-1.193 1.4-1.527.293-.613.927-1.04 1.653-1.04s1.36.427 1.653 1.04c.62.333 1.12.873 1.4 1.527.1.053.193.12.28.193v-5.593c0-.247-.18-.454-.42-.494zm-9.58 2.327c0 .187-.147.333-.333.333h-.667c-.187 0-.333-.147-.333-.333v-.667c0-.187.147-.333.333-.333h.667c.187 0 .333.147.333.333zm2.667 0c0 .187-.147.333-.333.333h-.667c-.187 0-.333-.147-.333-.333v-.667c0-.187.147-.333.333-.333h.667c.187 0 .333.147.333.333zm2.667 0c0 .187-.147.333-.333.333h-.667c-.187 0-.333-.147-.333-.333v-.667c0-.187.147-.333.333-.333h.667c.187 0 .333.147.333.333zm1.666-6h.667v3.36l-.667-.107zm1 6c0 .187-.147.333-.333.333h-.667c-.187 0-.333-.147-.333-.333v-.667c0-.187.147-.333.333-.333h.667c.187 0 .333.147.333.333z" fill="rgb(240,219,79,100%)"/></svg>