<svg id="Bold" height="512" viewBox="0 0 32 32" width="512" xmlns="http://www.w3.org/2000/svg"><path d="m26 0h-20c-3.314 0-6 2.686-6 6v20c0 3.314 2.686 6 6 6h20c3.314 0 6-2.686 6-6v-20c0-3.314-2.686-6-6-6z" fill="rgb(240,219,79,20%)"/><path d="m19.826 14.522-1.179-.285 2.353-1.359c.183-.106.305-.292.329-.502s-.053-.419-.208-.563l-1.043-.973 1.152-1.817c.158-.25.133-.573-.061-.796-.194-.222-.512-.291-.78-.167l-8.61 3.953c-.675.334-1.112 1.048-1.112 1.819v1.782c0 .941.62 1.749 1.503 1.963l1.129.282-2.277 1.207c-.192.102-.323.291-.349.507-.027.216.053.431.215.577l1.038.937-1.16 1.898c-.153.251-.124.572.071.791.128.146.311.224.497.224.094 0 .19-.02.28-.062l8.601-3.982c.68-.326 1.119-1.026 1.119-1.785v-1.825c-.001-.893-.594-1.609-1.508-1.824zm-1.062-3.084.789.735-2.786 1.609-3.698-.894 5.829-2.675-.242.381c-.172.271-.127.626.108.844zm-5.536 9.03-.742-.67 2.748-1.456 3.438.858-5.623 2.604.302-.494c.167-.273.115-.627-.123-.842z" fill="rgb(240,219,79,100%)"/></svg>