<svg enable-background="new 0 0 32 32" height="512" viewBox="0 0 32 32" width="512" xmlns="http://www.w3.org/2000/svg"><path d="m26 32h-20c-3.314 0-6-2.686-6-6v-20c0-3.314 2.686-6 6-6h20c3.314 0 6 2.686 6 6v20c0 3.314-2.686 6-6 6z" fill="rgb(240,219,79,20%)"/><path d="m18.778 15.986-4.361 4.361c-.044.044-.075.099-.089.16l-.727 3.084c-.026.112.007.23.089.312.064.063.149.097.236.097.025 0 .051-.003.076-.009l3.084-.727c.06-.014.115-.045.159-.089l4.361-4.361z" fill="rgb(240,219,79,100%)"/><path d="m23.609 14.926-.943-.943c-.504-.504-1.382-.504-1.886 0l-1.296 1.296 2.829 2.829 1.296-1.296c.252-.252.391-.587.391-.943 0-.357-.139-.691-.391-.943z" fill="rgb(240,219,79,100%)"/><path d="m20 10.667c-.368 0-.667.299-.667.667v1.333c0 .368.299.667.667.667s.667-.299.667-.667v-1.333c0-.369-.299-.667-.667-.667z" fill="rgb(240,219,79,100%)"/><path d="m17.713 14h-2.713v-2c0-.368-.299-.667-.667-.667s-.666.299-.666.667v2h-4.334v-2.833c0-.368-.299-.667-.667-.667s-.666.298-.666.667v9.167c0 .918.748 1.666 1.667 1.666h2.893c.368 0 .667-.299.667-.667s-.299-.667-.667-.667h-2.893c-.184 0-.333-.149-.333-.333v-1.667h5c.368.001.666-.298.666-.666v-2.667h2.713c.368 0 .667-.299.667-.667s-.298-.666-.667-.666zm-8.38 1.333h4.333v2h-4.333z" fill="rgb(240,219,79,100%)"/><path d="m19.167 8h-9.667c-.828 0-1.5.672-1.5 1.5v2.5h12.667v-2.5c0-.828-.672-1.5-1.5-1.5z" fill="rgb(240,219,79,100%)"/></svg>