<svg id="bold" enable-background="new 0 0 32 32" height="512" viewBox="0 0 32 32" width="512" xmlns="http://www.w3.org/2000/svg"><path d="m26 32h-20c-3.314 0-6-2.686-6-6v-20c0-3.314 2.686-6 6-6h20c3.314 0 6 2.686 6 6v20c0 3.314-2.686 6-6 6z" fill="rgb(240,219,79,20%)"/><path d="m16 19.333c-1.103 0-2-.897-2-2s.897-2 2-2 2 .897 2 2-.897 2-2 2z" fill="rgb(240,219,79,100%)"/><g fill="rgb(240,219,79,100%)"><path d="m12.667 10.667c-.735 0-1.333-.598-1.333-1.333-.001-.736.597-1.334 1.333-1.334s1.333.598 1.333 1.333c0 .736-.598 1.334-1.333 1.334z"/><path d="m19.333 10.667c-.735 0-1.333-.598-1.333-1.333 0-.736.598-1.334 1.333-1.334s1.333.598 1.333 1.333c.001.736-.597 1.334-1.333 1.334z"/><path d="m14.833 13.667c-.368 0-.667-.299-.667-.667v-.127c0-.971-.458-1.909-1.224-2.508-.29-.227-.341-.646-.114-.936s.646-.34.936-.114c1.103.863 1.736 2.16 1.736 3.559v.126c0 .368-.299.667-.667.667z"/><path d="m17.167 13.667c-.368 0-.667-.299-.667-.667v-.127c0-1.398.633-2.695 1.736-3.559.29-.226.709-.175.936.114.227.29.176.709-.114.936-.767.6-1.224 1.537-1.224 2.508v.128c-.001.368-.299.667-.667.667z"/><path d="m19.077 24c-.738 0-1.36-.51-1.538-1.199-.179.689-.801 1.199-1.539 1.199s-1.36-.51-1.538-1.199c-.179.689-.801 1.199-1.539 1.199-.877 0-1.59-.72-1.59-1.604v-5.03c0-2.591 2.093-4.699 4.667-4.699s4.667 2.108 4.667 4.699v5.03c0 .884-.714 1.604-1.59 1.604zm-1.539-3.386c.707 0 1.282.579 1.282 1.292v.49c0 .149.115.271.256.271s.257-.121.257-.271v-5.03c0-1.856-1.495-3.366-3.333-3.366s-3.333 1.51-3.333 3.366v5.03c0 .149.115.271.257.271.141 0 .256-.121.256-.271v-1.115c0-.712.575-1.292 1.282-1.292s1.282.579 1.282 1.292v1.115c0 .149.115.271.257.271s.257-.121.257-.271v-.49c-.001-.712.574-1.292 1.28-1.292z"/></g></svg>