<svg id="bold" height="512" viewBox="0 0 32 32" width="512" xmlns="http://www.w3.org/2000/svg"><path d="m6 0h20c3.314 0 6 2.686 6 6v20c0 3.314-2.686 6-6 6h-20c-3.314 0-6-2.686-6-6v-20c0-3.314 2.686-6 6-6z" fill="rgb(240,219,79,20%)"/><g fill="rgb(240,219,79,100%)"><path d="m15.667 19.333c-.093 0-.187-.026-.269-.078l-1.833-1.167c-.144-.092-.231-.251-.231-.422s.087-.33.231-.422l1.833-1.167c.164-.104.373-.104.537 0l1.833 1.167c.145.093.232.252.232.423s-.087.33-.231.422l-1.833 1.167c-.083.051-.176.077-.269.077z"/><path d="m16.833 17h2.833v1.333h-2.833z"/><path d="m11.833 17h2.5v1.333h-2.5z"/></g><path d="m21.006 24h-10.012c-.895 0-1.727-.483-2.171-1.26l-.757-1.326c-.088-.155-.088-.345.002-.499s.254-.249.433-.249h15c.178 0 .343.095.433.249.089.154.09.344.002.499l-.757 1.326c-.446.777-1.278 1.26-2.173 1.26z" fill="rgb(240,219,79,100%)"/><path d="m10.448 21.63c-.348-.121-.532-.501-.41-.849l2.667-7.667c.046-.132.132-.247.247-.327l6.667-4.667c.237-.166.554-.16.785.015s.322.479.225.753l-2 5.667c-.122.347-.503.53-.851.407-.347-.122-.529-.503-.407-.851l1.308-3.707-4.787 3.351-2.596 7.463c-.121.349-.501.533-.848.412z" fill="rgb(240,219,79,100%)"/><path d="m20.742 21.308-4-7.667c-.17-.326-.044-.729.283-.899.326-.171.729-.044.899.283l4 7.667c.17.326.044.729-.283.899-.321.168-.727.047-.899-.283z" fill="rgb(240,219,79,100%)"/></svg>