<svg id="bold" height="512" viewBox="0 0 32 32" width="512" xmlns="http://www.w3.org/2000/svg"><g><path d="m26 32h-20c-3.314 0-6-2.686-6-6v-20c0-3.314 2.686-6 6-6h20c3.314 0 6 2.686 6 6v20c0 3.314-2.686 6-6 6z" fill="rgb(240,219,79,20%)"/></g><path d="m23.333 22.667h-1.028l-.171-.428c-.382-.955-1.293-1.572-2.321-1.572h-7.625c-1.028 0-1.939.617-2.321 1.572l-.171.428h-1.029c-.369 0-.667.298-.667.666s.298.667.667.667h14.667c.368 0 .666-.298.666-.667s-.298-.666-.667-.666z" fill="rgb(240,219,79,100%)"/><path d="m14.667 17.667h2.667v3.333h-2.667z" fill="rgb(240,219,79,100%)"/><g fill="rgb(240,219,79,100%)"><path d="m16.667 18h-1.333c-1.103 0-2-.897-2-2v-6c0-1.103.897-2 2-2h3.333c1.103 0 2 .897 2 2v.509c0 .762-.424 1.448-1.105 1.789l-.526.263c-.227.114-.368.342-.368.596v2.843c-.001 1.103-.898 2-2.001 2zm-1.334-8.667c-.368 0-.667.299-.667.667v6c0 .368.299.667.667.667h1.333c.368 0 .667-.299.667-.667v-2.842c0-.762.424-1.448 1.105-1.789l.526-.263c.227-.114.368-.342.368-.596v-.51c0-.368-.299-.667-.667-.667z"/><path d="m15.333 12h-1.167c-.368 0-.667-.298-.667-.667s.299-.667.667-.667h1.167c.368 0 .667.298.667.667s-.299.667-.667.667z"/><path d="m15.333 15.333h-1.167c-.368 0-.667-.298-.667-.667 0-.368.299-.667.667-.667h1.167c.368.001.667.299.667.668 0 .368-.299.666-.667.666z"/></g></svg>