<svg id="bold" height="512" viewBox="0 0 32 32" width="512" xmlns="http://www.w3.org/2000/svg"><path d="m6 0h20c3.314 0 6 2.686 6 6v20c0 3.314-2.686 6-6 6h-20c-3.314 0-6-2.686-6-6v-20c0-3.314 2.686-6 6-6z" fill="rgb(240,219,79,20%)"/><g fill="rgb(240,219,79,100%)"><path d="m16.167 12.667c-.276 0-.5-.224-.5-.5v-3.667c0-.276.224-.5.5-.5s.5.224.5.5v3.667c0 .276-.224.5-.5.5z"/><path d="m19.5 12.667h-1.667c-.276 0-.5-.224-.5-.5v-1.167c0-.643.523-1.167 1.167-1.167h.333c.092.001.167-.074.167-.166v-.5c0-.092-.075-.167-.167-.167h-1c-.276 0-.5-.224-.5-.5s.224-.5.5-.5h1c.644 0 1.167.524 1.167 1.167v.5c0 .643-.523 1.167-1.167 1.167h-.333c-.092 0-.167.075-.167.167v.667h1.167c.276 0 .5.224.5.5s-.224.499-.5.499z"/><path d="m22.167 10.834h-1c-.276 0-.5-.224-.5-.5s.224-.5.5-.5h1c.092 0 .167-.075.167-.167v-.5c-.001-.092-.076-.167-.167-.167h-1c-.276 0-.5-.224-.5-.5s.224-.5.5-.5h1c.643 0 1.167.523 1.167 1.167v.5c-.001.643-.524 1.167-1.167 1.167z"/><path d="m22.167 12.667h-1c-.276 0-.5-.224-.5-.5s.224-.5.5-.5h1c.092 0 .167-.075.167-.167v-.5c0-.092-.075-.167-.167-.167h-1c-.276 0-.5-.224-.5-.5s.224-.5.5-.5h1c.643 0 1.167.523 1.167 1.167v.5c-.001.643-.524 1.167-1.167 1.167z"/></g><path d="m20.667 13.927c-.113-.033-.227-.08-.333-.133-.254.126-.534.206-.834.206h-1.667c-.3 0-.58-.08-.833-.207-.253.127-.533.207-.833.207-1.013 0-1.833-.82-1.833-1.833v-3.667c0-.173.027-.34.067-.5h-3.733c-1.1 0-2 .9-2 2v9.667c0 .653.893 1.667 2 1.667h2v2.166c0 .435.519.66.833.373l1.167-1.04 1.167 1.04c.304.282.833.069.833-.373v-2.167h3.332c.367 0 .667-.3.667-.667zm-8 6.073h-2c-.367 0-.667-.3-.667-.666 0-.367.3-.667.667-.667h2zm6.666 0h-2.667v-1.333h2.667z" fill="rgb(240,219,79,100%)"/></svg>