<svg id="bold" height="512" viewBox="0 0 32 32" width="512" xmlns="http://www.w3.org/2000/svg"><path d="m26 32h-20c-3.314 0-6-2.686-6-6v-20c0-3.314 2.686-6 6-6h20c3.314 0 6 2.686 6 6v20c0 3.314-2.686 6-6 6z" fill="rgb(240,219,79,20%)"/><g fill="rgb(240,219,79,100%)"><path d="m18.833 24h-6.333c-.276 0-.5-.224-.5-.5v-1.333c0-.276.224-.5.5-.5h6.333c.276 0 .5.224.5.5v1.333c0 .276-.224.5-.5.5zm-5.833-1h5.333v-.333h-5.333z"/><path d="m15.667 19.167c-1.378 0-2.5 1.121-2.5 2.5v.5c0 .276.224.5.5.5h4c.276 0 .5-.224.5-.5v-.5c0-1.379-1.122-2.5-2.5-2.5z"/><path d="m17.667 20.914c-.128 0-.256-.049-.354-.146-.195-.195-.195-.512 0-.707l3.484-3.484c.195-.195.512-.195.707 0s.195.512 0 .707l-3.484 3.484c-.097.097-.225.146-.353.146z"/><path d="m15.626 20.126c-.128 0-.256-.049-.354-.146-.195-.195-.195-.512 0-.707l3.92-3.92c.195-.195.512-.195.707 0s.195.512 0 .707l-3.92 3.92c-.097.098-.224.146-.353.146z"/><path d="m16.5 13h-3.333c-.276 0-.5-.224-.5-.5v-1.667c0-.276.224-.5.5-.5h3.396c.276 0 .5.224.5.5s-.224.5-.5.5h-2.896v.667h2.833c.276 0 .5.224.5.5s-.224.5-.5.5z"/><path d="m13.167 10h-1.667c-.276 0-.5.224-.5.5v2.333c0 .276.224.5.5.5h1.667c.276 0 .5-.224.5-.5v-2.333c0-.276-.224-.5-.5-.5z"/><path d="m12.333 11c-.276 0-.5-.224-.5-.5v-.546l-1.489-.868-1.576 1.003c-.231.148-.542.079-.69-.153-.148-.234-.079-.543.154-.691l1.833-1.167c.158-.101.358-.104.52-.01l2 1.167c.154.09.248.254.248.432v.833c0 .276-.224.5-.5.5z"/><path d="m10.333 15.333c-.093 0-.187-.026-.268-.078l-1.833-1.167c-.233-.148-.302-.457-.154-.69s.457-.302.69-.153l1.576 1.003 1.489-.868v-.546c0-.276.224-.5.5-.5s.5.224.5.5v.833c0 .178-.094.342-.248.432l-2 1.167c-.078.045-.164.067-.252.067z"/></g><path d="m23.294 13.222-3.182-3.182c-.456-.455-1.061-.706-1.703-.706-1.328 0-2.409 1.081-2.409 2.409 0 .642.251 1.247.706 1.702l3.182 3.182c.456.455 1.061.706 1.703.706 1.328 0 2.409-1.081 2.409-2.409 0-.643-.251-1.247-.706-1.702zm-4.961-.889c-.368 0-.667-.299-.667-.667s.298-.667.667-.667c.369.001.667.299.667.668 0 .368-.298.666-.667.666zm3.334 3.334c-.369 0-.667-.299-.667-.667s.298-.667.667-.667.667.298.667.667c-.001.368-.299.667-.667.667z" fill="rgb(240,219,79,100%)"/></svg>