<svg id="bold" enable-background="new 0 0 32 32" height="512" viewBox="0 0 32 32" width="512" xmlns="http://www.w3.org/2000/svg"><path d="m26 32h-20c-3.314 0-6-2.686-6-6v-20c0-3.314 2.686-6 6-6h20c3.314 0 6 2.686 6 6v20c0 3.314-2.686 6-6 6z" fill="rgb(240,219,79,20%)"/><path d="m16.187 14.149-.844-.844c.208-.218.324-.501.324-.803 0-.312-.121-.604-.342-.825l-3.333-3.333c-.44-.441-1.212-.441-1.65 0l-2 2c-.221.221-.342.514-.342.825s.121.604.342.825l3.333 3.333c.22.221.514.342.826.342.302 0 .586-.116.803-.324l.844.844c.195.195.512.195.707 0s.195-.512 0-.707l-.842-.842.626-.626.842.842c.195.195.512.195.707 0 .194-.195.194-.511-.001-.707zm-5.02-5.146c.06 0 .1.03.118.049l3.333 3.333c.018.018.049.058.049.118s-.031.1-.049.118l-.647.646-3.569-3.569.647-.647c.018-.018.058-.048.118-.048zm1.215 5.618-3.333-3.333c-.018-.019-.049-.059-.049-.119s.031-.1.049-.118l.647-.646 3.569 3.569-.647.647c-.036.036-.199.037-.236 0z" fill="rgb(240,219,79,100%)"/><path d="m23.658 20.011-3.333-3.333c-.433-.435-1.186-.439-1.628-.018l-.844-.844c-.195-.195-.512-.195-.707 0s-.195.512 0 .707l.842.842-.626.626-.842-.842c-.195-.195-.512-.195-.707 0s-.195.512 0 .707l.844.844c-.208.218-.324.501-.324.803 0 .312.121.604.342.825l3.333 3.333c.22.221.514.342.826.342s.605-.121.825-.342l2-2c.22-.22.341-.513.341-.825 0-.311-.121-.604-.342-.825zm-2.942 2.943-3.333-3.333c-.018-.018-.049-.058-.049-.118s.031-.1.049-.118l.647-.646 3.569 3.569-.647.647c-.037.036-.2.036-.236-.001zm2.235-2-.646.646-3.569-3.569.647-.647c.018-.018.057-.049.117-.049s.1.03.118.049l3.333 3.333c.018.02.049.059.049.119s-.031.1-.049.118z" fill="rgb(240,219,79,100%)"/><g fill="rgb(240,219,79,100%)"><path d="m15.167 18.669c-.312 0-.605-.121-.826-.342l-.666-.666c-.221-.22-.342-.513-.342-.825s.121-.604.342-.825l2.333-2.333c.439-.441 1.21-.441 1.65 0l.666.666c.221.22.342.513.342.825s-.121.604-.342.825l-2.333 2.333c-.219.221-.512.342-.824.342z"/><path d="m13 19.503c-.128 0-.256-.049-.354-.146-.195-.195-.195-.512 0-.707l1.193-1.193c.195-.195.512-.195.707 0s.195.512 0 .707l-1.193 1.193c-.097.097-.225.146-.353.146z"/><path d="m17.807 14.696c-.128 0-.256-.049-.354-.146-.195-.195-.195-.512 0-.707l1.127-1.127c.195-.196.512-.195.707 0s.195.512 0 .707l-1.127 1.127c-.097.097-.226.146-.353.146z"/><path d="m20.571 15.031c-.217 0-.42-.084-.573-.237l-2.789-2.789c-.153-.153-.237-.356-.237-.573 0-.386.275-.72.654-.795l1.285-.252c.368-.074.743.043 1.007.307l1.393 1.393c.264.264.379.641.307 1.007l-.252 1.285c-.075.379-.409.654-.795.654z"/><path d="m13.48 20.19-1.667-1.667c-.195-.195-.195-.512 0-.707s.512-.195.707 0l1.667 1.667c.195.195.195.512 0 .707s-.512.195-.707 0z"/></g></svg>