<svg id="bold" enable-background="new 0 0 24 24" height="512" viewBox="0 0 24 24" width="512" xmlns="http://www.w3.org/2000/svg"><path d="m11.5 17c-3.033 0-5.5-2.467-5.5-5.5s2.467-5.5 5.5-5.5 5.5 2.467 5.5 5.5-2.467 5.5-5.5 5.5z"/><path d="m10 24c-1.103 0-2-.897-2-2s.897-2 2-2 2 .897 2 2-.897 2-2 2zm0-2h.01zm0 0h.01zm0 0h.01zm0 0h.01zm0 0h.01zm0-.001h.01zm0 0h.01z"/><path d="m3 9c-1.103 0-2-.897-2-2s.897-2 2-2 2 .897 2 2-.897 2-2 2zm0-2h.01zm0 0h.01zm0 0h.01zm0 0h.01zm0 0h.01zm0-.001h.01zm0 0h.01z"/><path d="m2.5 20c-1.378 0-2.5-1.122-2.5-2.5s1.122-2.5 2.5-2.5 2.5 1.122 2.5 2.5-1.122 2.5-2.5 2.5z"/><path d="m21 6c-1.654 0-3-1.346-3-3s1.346-3 3-3 3 1.346 3 3-1.346 3-3 3z"/><path d="m20.5 24c-1.93 0-3.5-1.57-3.5-3.5s1.57-3.5 3.5-3.5 3.5 1.57 3.5 3.5-1.57 3.5-3.5 3.5z"/><path d="m10.5 5c-1.378 0-2.5-1.122-2.5-2.5s1.122-2.5 2.5-2.5 2.5 1.122 2.5 2.5-1.122 2.5-2.5 2.5z"/><path d="m17.673 19.087-3.34-3.34c-.391-.391-.391-1.023 0-1.414s1.023-.391 1.414 0l3.34 3.34c.391.391.391 1.023 0 1.414s-1.024.391-1.414 0z"/><path d="m14.474 8.836c-.368-.412-.332-1.044.08-1.412l3.92-3.5c.412-.367 1.044-.331 1.412.08.368.412.332 1.044-.08 1.412l-3.92 3.5c-.412.367-1.042.333-1.412-.08z"/><path d="m9.22 20.379.58-4.08c.078-.547.583-.928 1.131-.85.547.078.927.584.85 1.131l-.58 4.08c-.19 1.326-2.167 1.027-1.981-.281z"/><path d="m9.956 6.649-.28-2.56c-.06-.549.336-1.043.885-1.103.544-.061 1.042.336 1.103.885l.28 2.56c.06.549-.336 1.043-.885 1.103-.559.059-1.044-.343-1.103-.885z"/><path d="m3.337 16.944c-.306-.46-.181-1.081.278-1.387l3.17-2.11c.458-.306 1.08-.183 1.387.278.306.46.181 1.081-.278 1.387l-3.17 2.11c-.46.306-1.08.182-1.387-.278z"/><path d="m6.612 10.044-2.76-1.46c-.488-.258-.674-.863-.416-1.352.258-.488.862-.675 1.352-.416l2.76 1.46c.488.258.674.864.416 1.352-.259.489-.865.674-1.352.416z"/></svg>