<svg id="Bold" enable-background="new 0 0 24 24" height="512" viewBox="0 0 24 24" width="512" xmlns="http://www.w3.org/2000/svg"><path d="m12 0c-6.62 0-12 5.38-12 12s5.38 12 12 12c.28 0 .55-.01.83-.03-.02-.09-.04-.17-.05-.26l-.74-4.33c-.18-1.02.23-2.04 1.06-2.67.47-.35 1.06-.54 1.65-.54.42 0 .84.09 1.21.28l.05.02.58-1.05c.32-.57.83-1 1.44-1.22.04-.4.06-.8.08-1.22h3.84c-.08.84-.27 1.65-.55 2.42 0 .01.01.01.01.02l.58 1.05.05-.02c.37-.19.79-.28 1.21-.28.49-1.3.75-2.7.75-4.17 0-6.62-5.38-12-12-12zm-4.06 2.87c-.46.78-.86 1.71-1.18 2.74-.67-.17-1.3-.38-1.87-.63.87-.88 1.9-1.6 3.05-2.11zm-4.34 3.72c.8.38 1.7.7 2.68.96-.21 1.07-.34 2.22-.39 3.43h-3.84c.16-1.6.72-3.09 1.55-4.39zm-1.55 6.39h3.84c.05 1.23.18 2.39.39 3.47-.98.26-1.88.58-2.68.96-.84-1.3-1.39-2.81-1.55-4.43zm2.84 6.04c.57-.25 1.2-.46 1.87-.63.32 1.03.72 1.96 1.18 2.74-1.15-.51-2.18-1.23-3.05-2.11zm6.11 2.63c-.86-.58-1.68-1.86-2.26-3.67.73-.11 1.48-.18 2.26-.21zm0-5.88c-.95.04-1.88.12-2.76.27-.18-.94-.3-1.96-.35-3.06h3.11zm0-4.79h-3.11c.05-1.08.17-2.09.35-3.02.88.15 1.81.23 2.76.27zm0-4.75c-.78-.03-1.53-.1-2.26-.21.58-1.81 1.4-3.09 2.26-3.67zm2-3.88c.86.58 1.68 1.86 2.26 3.67-.73.11-1.48.18-2.26.21zm2.76 13.69c-.88-.15-1.81-.23-2.76-.27v-2.79h3.11c-.05 1.1-.17 2.12-.35 3.06zm-2.76-5.06v-2.75c.95-.04 1.88-.12 2.76-.27.18.93.3 1.94.35 3.02zm3.06-8.11c1.15.51 2.18 1.23 3.05 2.11-.57.25-1.2.46-1.87.63-.32-1.03-.72-1.96-1.18-2.74zm2.05 8.11c-.05-1.21-.18-2.36-.39-3.43.98-.26 1.88-.58 2.68-.96.83 1.3 1.39 2.79 1.55 4.39z"/><path d="m22.511 24h-7.021c-.365 0-.678-.264-.739-.624l-.739-4.333c-.048-.277.064-.558.29-.727.225-.168.526-.197.779-.073l1.761.863 1.503-2.719c.264-.478 1.049-.478 1.313 0l1.503 2.719 1.761-.863c.253-.125.555-.096.779.073.226.168.338.449.29.727l-.739 4.333c-.064.36-.376.624-.741.624z"/></svg>